<?xml version="1.0" encoding="UTF-8" standalone="no"?>
<!-- Created with Inkscape (http://www.inkscape.org/) -->

<svg
   xmlns:dc="http://purl.org/dc/elements/1.1/"
   xmlns:cc="http://creativecommons.org/ns#"
   xmlns:rdf="http://www.w3.org/1999/02/22-rdf-syntax-ns#"
   xmlns:svg="http://www.w3.org/2000/svg"
   xmlns="http://www.w3.org/2000/svg"
   xmlns:sodipodi="http://sodipodi.sourceforge.net/DTD/sodipodi-0.dtd"
   xmlns:inkscape="http://www.inkscape.org/namespaces/inkscape"
   id="svg4174"
   version="1.1"
   inkscape:version="0.91 r13725"
   width="1500"
   height="1500"
   viewBox="0 0 1500 1500"
   sodipodi:docname="BackgroundPattern42Twotone.svg">
  <metadata
     id="metadata4180">
    <rdf:RDF>
      <cc:Work
         rdf:about="">
        <dc:format>image/svg+xml</dc:format>
        <dc:type
           rdf:resource="http://purl.org/dc/dcmitype/StillImage" />
        <dc:title></dc:title>
      </cc:Work>
    </rdf:RDF>
  </metadata>
  <defs
     id="defs4178" />
  <sodipodi:namedview
     pagecolor="#ffffff"
     bordercolor="#666666"
     borderopacity="1"
     objecttolerance="10"
     gridtolerance="10"
     guidetolerance="10"
     inkscape:pageopacity="0"
     inkscape:pageshadow="2"
     inkscape:window-width="1600"
     inkscape:window-height="837"
     id="namedview4176"
     showgrid="false"
     inkscape:zoom="0.44666311"
     inkscape:cx="749.99567"
     inkscape:cy="750.00539"
     inkscape:window-x="-8"
     inkscape:window-y="-8"
     inkscape:window-maximized="1"
     inkscape:current-layer="svg4174" />
  <g
     id="g4147">
    <path
       style="fill:#f95f04"
       d="M 0,750.00001 0,1.5e-5 l 750.00001,0 749.99999,0 0,749.999995 L 1500,1500 750.00001,1500 0,1500 0,750.00001 Z"
       id="path4194"
       inkscape:connector-curvature="0" />
    <path
       inkscape:connector-curvature="0"
       id="path4186"
       d="m 0.04989851,1488.9844 0.04989852,-11.0156 2.30872367,7.8096 c 1.269798,4.2954 2.9348437,9.0205 3.7001014,10.5004 C 8.0135889,1499.9626 7.9898579,1500 3.75,1500 L 0,1500 0.04989851,1488.9844 Z M 116.25,1499.0087 c 6.02498,-4.1242 15.05054,-7.7414 20.38402,-8.1696 5.20013,-0.4173 6.54103,-0.1392 11.79416,2.4469 3.25984,1.6048 6.69995,3.772 7.6447,4.8159 l 1.71773,1.8981 -21.47343,-0.014 c -14.98081,-0.01 -21.04825,-0.3054 -20.06718,-0.9769 z m 69.87527,-2.3591 c -2.77365,-6.6383 -6.16862,-18.5158 -7.53965,-26.3778 -2.84228,-16.2988 -1.73462,-30.931 5.23684,-69.178 2.86254,-15.7046 3.08031,-18.3381 3.13984,-37.9688 0.0821,-27.0922 -0.90194,-31.4673 -12.27091,-54.5544 -4.39488,-8.9248 -9.29622,-20.0237 -10.89187,-24.6643 -2.62719,-7.6407 -2.8977,-9.5 -2.86431,-19.6875 0.0322,-9.8543 0.45341,-12.8203 3.39423,-23.9063 11.30291,-42.6084 12.21988,-47.5227 12.24515,-65.625 0.0228,-16.3429 -1.52501,-24.3072 -6.90319,-35.5202 -4.54325,-9.4723 -12.7831,-18.119 -21.18245,-22.2284 -10.06947,-4.9266 -17.92048,-3.3291 -33.24709,6.7646 -22.271607,14.6675 -33.711121,35.9138 -30.808821,57.2203 1.319417,9.6862 4.83351,19.7643 14.37662,41.2308 10.396641,23.3864 12.901291,31.3896 13.017641,41.5954 0.21472,18.835 -9.7139,34.4283 -34.459547,54.1201 -24.826427,19.756 -30.785995,19.9345 -48.377438,1.4489 -12.122125,-12.7383 -17.37021,-24.2242 -19.6363926,-42.9759 -1.9216412,-15.9008 0.076997,-33.3643 7.3960266,-64.6243 5.188518,-22.1606 5.906301,-26.7206 5.906301,-37.5225 0,-15.0288 -2.501912,-23.9779 -13.1031006,-46.8686 -8.88159114,-19.1776 -9.553604693,-22.8485 -9.55072453,-52.1714 0.00255707,-26.0333 -0.22246908,-23.7312 6.26189223,-64.0625 3.262166,-20.28999 1.7641242,-43.43227 -3.943222,-60.91627 l -2.32976201,-7.137 0.23870846,-97.59262 0.23870845,-97.59261 3.6088516,9.74423 c 9.7235674,26.2545 10.6619174,42.92207 4.3830715,77.85485 -4.7141967,26.22775 -5.6731927,33.54416 -6.2484111,47.67062 -1.0814648,26.55907 2.084023,38.42029 17.889116,67.03125 7.498564,13.57416 10.930298,23.53659 11.534081,33.48384 0.607012,10.00041 -0.326799,14.99841 -6.836323,36.58991 -9.00585,29.8715 -10.171964,36.208 -10.223194,55.5513 -0.04016,15.1658 0.178167,17.5847 2.155674,23.8826 3.105887,9.8914 6.177472,15.5147 11.615306,21.2644 12.360697,13.0695 26.786073,14.0835 43.81133,3.0796 14.679097,-9.4876 24.602079,-24.3595 27.230201,-40.8108 2.047337,-12.8159 -1.958362,-27.6358 -15.307894,-56.6346 -10.146215,-22.0403 -12.059642,-27.68269 -12.612538,-37.19194 -0.611819,-10.52269 1.802885,-18.23934 9.105223,-29.09756 6.427655,-9.55753 12.838512,-16.01156 32.722296,-32.94269 14.37577,-12.24101 20.27947,-16.09851 24.57857,-16.05972 4.33222,0.0391 9.80437,3.50432 16.42668,10.40216 20.44261,21.29316 26.91677,36.90516 26.9741,65.046 0.0319,15.66435 -1.21765,24.99605 -6.90442,51.56255 -5.03696,23.5307 -5.95403,30.883 -5.36488,43.011 0.62897,12.9476 3.236,22.2141 11.56202,41.0968 3.93402,8.922 6.96274,17.5326 8.57366,24.375 2.23764,9.5042 2.48659,12.3426 2.44918,27.9234 -0.0339,14.138 -0.5096,20.2896 -2.57342,33.2813 -7.05916,44.4374 -7.91178,53.8466 -6.23512,68.808 1.44731,12.9147 4.62545,24.7984 9.95889,37.2386 8.9003,20.7598 11.63663,31.9523 11.63043,47.5726 -0.005,10.6278 -1.20333,18.9733 -6.55191,45.5995 -2.01975,10.0547 -4.11316,22.3779 -4.65204,27.3849 -2.572,23.8979 -0.004,43.8885 7.5882,59.0728 1.47511,2.9501 2.68202,5.5868 2.68202,5.8593 0,0.2726 -3.58028,0.4955 -7.95617,0.4955 l -7.95617,0 -1.39989,-3.3504 z M 56.861072,1288.0561 c 8.102484,-3.9223 13.190948,-14.7868 12.239703,-26.1333 -1.233489,-14.713 -10.136684,-27.2353 -19.364018,-27.2353 -4.115177,0 -9.527604,5.2744 -12.725995,12.4013 -2.113957,4.7105 -2.715464,7.6311 -3.064503,14.8796 -0.510828,10.6084 1.117511,16.8844 5.749446,22.1599 5.223933,5.9497 10.496433,7.1562 17.165367,3.9278 z m 87.170958,-263.2923 c 9.28626,-5.6625 15.99076,-23.8539 15.0581,-40.85755 -0.72249,-13.17206 -4.81993,-21.87413 -12.38795,-26.30925 -13.89306,-8.14191 -31.49279,5.784 -32.96565,26.08425 -0.88527,12.20175 4.05915,26.69255 12.18176,35.70155 6.49917,7.2085 12.29379,8.9298 18.11374,5.381 z m 145.34224,467.5018 c 8.77392,-9.0248 15.29801,-17.6531 19.31662,-25.5468 3.33307,-6.5472 4.52131,-17.3441 2.59163,-23.5488 -0.62239,-2.0013 -6.32774,-14.3966 -12.67853,-27.545 -11.86477,-24.5644 -14.70428,-31.6282 -16.95819,-42.1875 -3.95746,-18.54 0.97309,-35.0304 14.6042,-48.8442 5.32166,-5.3931 8.84299,-8.0144 14.48263,-10.7813 6.80517,-3.3387 8.10602,-3.6542 15,-3.6377 9.19705,0.023 14.64866,2.4793 21.31644,9.6076 9.10465,9.7336 13.10039,22.1544 13.18946,40.9994 0.0933,19.7335 -3.1296,32.9629 -17.69998,72.6562 -3.25896,8.8782 -3.61152,10.7174 -3.59427,18.75 0.0235,10.9553 1.63814,15.2264 13.04494,34.5068 l 7.87201,13.3057 -39.00316,0 -39.00316,0 7.51936,-7.7344 z m 90.79065,1.4063 c -4.24055,-10.588 -6.17913,-21.0326 -6.75255,-36.3815 -0.59561,-15.9427 0.18025,-24.2738 4.96532,-53.317 4.68991,-28.4655 5.65158,-40.3779 4.29953,-53.2588 -1.29139,-12.3031 -4.53137,-25.0933 -9.20331,-36.3314 -9.42879,-22.68 -12.00504,-33.6407 -11.90111,-50.6332 0.0777,-12.7023 0.68386,-17.0259 7.29472,-52.0313 3.54182,-18.7544 4.81285,-36.6048 3.48071,-48.8836 -1.99483,-18.3874 -4.81924,-26.4446 -15.48365,-44.1702 -13.7368,-22.8322 -18.22616,-34.8665 -17.04682,-45.6962 0.33691,-3.0937 4.14751,-16.1718 8.468,-29.0625 9.58626,-28.6016 12.0566,-40.3444 12.03049,-57.18745 -0.0214,-13.78669 -1.55137,-21.73931 -5.9592,-30.97509 -7.16454,-15.012 -20.94075,-23.11903 -34.20027,-20.12628 -17.21585,3.88568 -33.60511,20.51028 -38.41141,38.9629 -2.65104,10.17806 -1.52564,22.88119 3.27635,36.98222 1.14134,3.3516 6.41585,15.1641 11.72111,26.25 14.05392,29.3672 15.82822,35.5792 13.14921,46.0363 -3.49468,13.6411 -13.10096,26.0577 -36.56042,47.2564 -5.12854,4.6343 -14.35812,14.3323 -20.51016,21.551 -6.15206,7.2188 -12.22126,13.7579 -13.48713,14.5313 -2.2252,1.3596 -2.44678,1.2485 -6.67733,-3.3479 -4.64879,-5.0508 -24.82016,-33.7158 -29.91077,-42.5055 -6.84775,-11.8236 -9.96435,-25.9726 -9.93066,-45.0841 0.0275,-15.5971 0.87531,-22.446 5.91865,-47.8125 5.25924,-26.4524 5.95043,-32.33147 5.38391,-45.79406 -0.57135,-13.57735 -2.57026,-22.14103 -8.349,-35.76844 -5.5868,-13.17477 -9.82476,-25.70409 -11.73283,-34.6875 -2.48982,-11.72238 -2.24478,-36.48028 0.53352,-53.90625 1.15091,-7.21875 2.99833,-18.82031 4.10536,-25.78125 1.57775,-9.9208 2.02136,-16.91139 2.05245,-32.34375 0.0511,-25.34888 -1.5853,-32.79577 -12.135,-55.22379 -9.60281,-20.415 -12.83911,-36.14801 -10.9155,-53.06465 0.59625,-5.24349 2.95859,-18.03928 5.24964,-28.43509 6.16769,-27.98629 7.37406,-37.71942 6.81486,-54.98335 -0.50721,-15.65893 -1.84492,-22.52242 -6.34045,-32.53135 -3.5768,-7.96344 -7.05614,-12.78744 -15.32139,-21.24259 -7.63334,-7.80872 -14.55125,-11.83799 -20.35193,-11.85377 -4.86845,-0.0132 -12.96822,4.41525 -24.75911,13.53688 -19.206928,14.85881 -29.920627,27.31574 -35.040164,40.74157 -1.953382,5.12268 -2.354879,7.78651 -2.344643,15.55614 0.01447,10.98034 1.996764,17.69997 11.615639,39.375 11.695774,26.35507 14.996548,37.24334 14.976788,49.40382 -0.0341,20.99001 -13.643638,40.82775 -35.982818,52.44986 -6.286252,3.27047 -8.671778,3.99554 -14.342978,4.3595 -5.967334,0.38296 -7.423848,0.13263 -11.862042,-2.03878 -13.458389,-6.58458 -22.463179,-19.79906 -25.949424,-38.08065 -1.458192,-7.64664 -1.21677,-27.47881 0.463301,-38.0589 0.810915,-5.10667 3.971756,-18.77704 7.024092,-30.3786 6.405832,-24.3478 7.541238,-30.06948 7.522142,-37.90656 C 29.02074,600.3294 25.52641,589.64944 15.479256,570.30787 3.6085089,547.45575 0.8820656,536.92018 0.84295269,513.75 0.81662722,498.15499 1.585537,491.07729 6.3427739,463.125 9.43974,444.92803 9.7735472,441.28285 9.7768378,425.625 9.7808334,406.61352 8.762144,400.52497 2.8811953,384.41078 L 0,376.51612 0.03361059,279.89869 0.0672212,183.28125 l 2.7737189,6.40878 c 4.6872716,10.83012 8.1398769,22.20097 9.8536569,32.45217 2.037953,12.19028 1.434723,26.56812 -1.909565,45.51405 C 9.5107969,274.875 7.5284229,286.05469 6.3797572,292.5 c -1.7326687,9.72223 -2.0930989,15.23263 -2.1155754,32.34375 -0.024427,18.59645 0.182528,21.38999 2.1041889,28.40291 3.0074309,10.97534 5.4209383,15.99723 15.1570093,31.53784 4.709039,7.51652 10.54616,17.77072 12.97138,22.78711 4.265592,8.82307 4.408658,9.3965 4.384023,17.57143 -0.02487,8.25324 -0.196078,8.89838 -7.326875,27.60927 -8.389551,22.01381 -12.206656,35.8295 -13.752015,49.77426 -4.228523,38.15664 14.264944,65.99525 39.553656,59.54094 8.026452,-2.04855 14.799135,-6.31702 21.849923,-13.7709 7.061959,-7.46568 11.215109,-15.47956 13.287978,-25.64036 1.305769,-6.40065 1.366209,-8.73677 0.412329,-15.9375 C 91.28868,494.5115 87.437647,484.15944 75.467968,459.84375 63.579354,435.69274 61.377169,429.49822 62.202514,422.52948 63.508512,411.50237 73.751195,396.55834 90.743635,380.8881 96.771431,375.32933 109.1197,363.29297 118.18424,354.14062 133.22423,338.95494 134.94905,337.5 137.91151,337.5 c 2.67873,0 4.08949,0.8605 8.06916,4.92187 6.88675,7.02812 24.99287,32.63544 29.3323,41.48438 6.30528,12.85769 7.90246,21.45008 7.84196,42.1875 -0.0547,18.72393 -0.60916,22.97475 -7.52147,57.65625 -2.14028,10.73852 -2.52979,15.14219 -2.57058,29.0625 -0.0573,19.53854 1.0431,24.63456 9.919,45.9375 3.11512,7.47656 6.96416,18.44531 8.55342,24.375 2.76996,10.33498 2.88991,11.55737 2.89802,29.53125 0.007,16.7765 -0.31114,20.67416 -3.02787,37.03125 -5.98279,36.02146 -7.03793,52.99043 -4.3881,70.57012 1.95958,13.00043 3.60049,18.10289 10.77092,33.49238 15.80097,33.91271 16.41532,42.32978 6.29533,86.25 -6.33399,27.48917 -6.74443,30.51964 -6.66621,49.21875 0.0805,19.2585 1.40404,25.99727 7.48188,38.09592 4.04704,8.0561 16.96115,21.70205 23.84153,25.19255 5.85927,2.97262 12.5071,2.86031 18.9447,-0.31997 5.74907,-2.84016 22.85676,-15.42574 28.54548,-21.00007 14.32172,-14.03369 22.01619,-31.40209 20.46165,-46.18718 -0.9881,-9.39774 -4.25765,-19.32961 -13.51329,-41.0492 -9.83023,-23.06794 -12.11655,-30.43067 -12.87152,-41.4508 -1.42204,-20.75704 10.40206,-40.1659 34.05898,-55.90668 18.81161,-12.51681 28.48588,-11.80625 43.43216,3.19004 8.06535,8.09233 11.85615,14.87152 15.1688,27.12671 1.6069,5.94476 1.98529,10.10792 2.02762,22.30868 0.0612,17.65152 -0.87584,23.63149 -8.52087,54.375 -5.30174,21.32025 -5.36168,21.71523 -5.33609,35.15625 0.0234,12.30315 0.27401,14.35031 2.63922,21.5625 1.43733,4.38281 5.71774,14.29957 9.51201,22.03722 15.70483,32.02681 16.9522,48.79475 7.74081,104.05658 -3.53158,21.1869 -3.9083,25.0128 -3.92313,39.8437 -0.0148,14.7892 0.23611,17.4126 2.54555,26.6162 1.40909,5.6154 4.8289,15.9514 7.5996,22.9687 7.93352,20.0933 9.52524,25.9336 10.78311,39.5655 1.05435,11.4263 -0.24161,25.3261 -4.53704,48.6621 -5.99767,32.5837 -7.31591,46.7065 -5.7596,61.7046 1.8131,17.4725 4.89858,26.849 13.87505,42.1651 6.92857,11.8218 12.93938,24.7785 14.72215,31.7343 2.96927,11.5854 1.70436,20.6709 -6.37678,45.8022 -8.57306,26.6613 -11.06626,39.5979 -11.02142,57.1875 0.0475,18.6623 4.46616,32.9241 13.31508,42.977 l 3.84382,4.3668 -11.69873,0 -11.69873,0 -2.53447,-6.3281 z M 247.96875,1111.3815 c 5.70217,-2.731 12.39382,-9.9852 15.67094,-16.9882 4.04678,-8.6478 4.71725,-20.8577 1.74105,-31.706 -4.67585,-17.0437 -16.4092,-33.3015 -25.65262,-35.5446 -3.78647,-0.9189 -10.01742,2.1557 -13.6412,6.7312 -3.68883,4.6575 -8.80452,15.5303 -10.8956,23.1574 -2.04049,7.4425 -2.86735,23.8443 -1.55465,30.8383 2.08798,11.1244 8.3083,20.7833 15.57404,24.1832 4.71594,2.2068 13.39735,1.8961 18.75804,-0.6713 z M 331.3927,811.72013 c 6.31992,-7.5108 4.81192,-22.32454 -2.6391,-25.92495 -2.21071,-1.06825 -3.02163,-1.0046 -5.97211,0.46875 -6.26807,3.12999 -8.75617,12.6573 -5.40198,20.685 3.6127,8.64641 9.16245,10.53599 14.01319,4.7712 z M 146.65832,473.39311 c 5.42415,-4.99981 11.28818,-16.43051 14.29791,-27.87077 3.22893,-12.27354 3.44602,-28.62407 0.4993,-37.60592 -6.90623,-21.0507 -23.61551,-27.05424 -40.20459,-14.44525 -4.14739,3.15233 -9.3018,10.98178 -11.54388,17.53497 -2.3585,6.89339 -2.54469,19.80292 -0.40495,28.07729 3.78585,14.63993 15.00096,32.41506 23.35414,37.01461 1.03125,0.56784 3.67739,1.04528 5.88032,1.06095 3.39734,0.0242 4.63017,-0.54745 8.12175,-3.76588 z M 448.59375,1497.9467 c 6.73866,-4.7774 15.35331,-14.8237 19.0575,-22.2244 4.85887,-9.7077 6.15022,-16.0864 5.53515,-27.341 -0.63391,-11.5996 -4.31685,-22.7156 -15.20127,-45.8813 -10.77709,-22.9372 -13.84993,-32.1038 -13.82804,-41.25 0.0353,-14.7585 10.58265,-32.1462 29.2889,-48.2841 4.38749,-3.785 14.13124,-13.2187 21.65277,-20.9636 8.61777,-8.8738 14.63221,-14.3219 16.2623,-14.731 5.83213,-1.4637 11.30744,3.8004 27.37838,26.3225 14.50233,20.3237 18.05479,30.2472 18.82647,52.5899 0.61569,17.8262 -0.42105,26.6779 -6.57775,56.1601 -4.8499,23.2243 -4.89392,23.5867 -4.84069,39.8437 0.0593,18.1315 1.09614,23.1821 8.22706,40.0781 l 3.26428,7.7344 -10.3105,0 -10.31052,0 -4.83702,-4.1021 c -7.39625,-6.2727 -12.30022,-8.4698 -18.89952,-8.4675 -6.15868,0 -11.22158,2.1316 -21.27668,8.9494 l -5.33919,3.6202 -20.44206,-0.03 -20.44207,-0.03 2.8125,-1.9939 z m 70.41453,-92.2767 c 8.72979,-4.1426 16.89259,-22.3255 17.91661,-39.9099 0.87595,-15.0418 -1.94127,-25.2155 -9.14715,-33.033 -15.73245,-17.0676 -42.15274,1.3323 -42.15274,29.3566 0,14.3831 10.25929,35.5263 20.55135,42.354 4.682,3.106 8.17629,3.4416 12.83193,1.2323 z m 59.97999,90.3358 c -3.57628,-6.1025 -6.84197,-15.5116 -8.57856,-24.7166 -1.24966,-6.6239 -1.46159,-11.57 -1.03935,-24.2579 0.55432,-16.6576 1.45636,-22.3999 8.68882,-55.3125 3.11514,-14.1761 3.5092,-17.44 3.56529,-29.5313 0.0737,-15.8973 -1.50355,-23.2055 -8.49812,-39.375 -12.67466,-29.3003 -13.83621,-34.2678 -13.81068,-59.0625 0.0158,-15.4021 0.41969,-20.7175 2.56415,-33.75 5.81828,-35.3593 6.44055,-40.659 6.49461,-55.3125 0.0782,-21.1865 -2.11964,-30.5599 -13.75895,-58.681 -5.49321,-13.2719 -7.9175,-22.8205 -8.65103,-34.074 -0.71224,-10.9269 0.34192,-19.4092 5.77435,-46.4638 5.40999,-26.9428 6.39883,-35.9782 5.82998,-53.27151 -0.77051,-23.424 -4.50982,-33.78497 -19.51015,-54.05936 -9.64566,-13.03703 -16.90662,-21.09305 -20.84866,-23.13156 -4.78196,-2.47285 -7.61231,-0.92947 -19.81975,10.80763 -6.238,5.99767 -16.97908,16.16271 -23.86906,22.58901 -17.71949,16.5269 -25.42875,27.37903 -28.80109,40.54256 -2.65659,10.36969 -0.0363,21.21743 10.5211,43.55663 19.0615,40.3336 21.65571,57.5327 11.70656,77.6117 -7.96818,16.081 -25.50508,29.2289 -40.40839,30.2953 -5.70738,0.4083 -7.06189,0.1481 -12.51718,-2.4047 -8.00095,-3.7441 -13.97416,-9.8207 -17.969,-18.2798 -5.45089,-11.5424 -6.50276,-17.0796 -6.44793,-33.9434 0.0546,-16.7819 1.54548,-25.6832 7.57854,-45.2469 9.48847,-30.76855 9.94275,-32.56302 10.38003,-41.00305 0.71081,-13.71947 -2.60146,-23.22319 -16.50037,-47.34375 -16.08178,-27.90878 -17.79961,-49.76123 -8.10641,-103.12088 7.51066,-41.34503 6.58459,-55.56118 -5.61875,-86.25412 -13.34181,-33.55631 -14.45909,-48.17666 -7.08705,-92.73931 5.07283,-30.66428 6.23483,-44.68433 4.88335,-58.91964 -1.64182,-17.29341 -3.68961,-23.77106 -14.14599,-44.7473 -11.88922,-23.85061 -13.6629,-29.48143 -13.58415,-43.125 0.0623,-10.77781 0.63406,-13.65158 8.3947,-42.1875 4.97085,-18.27788 7.01337,-31.55847 7.01337,-45.60143 0,-15.20825 -1.75781,-24.29606 -6.63875,-34.32196 -4.59728,-9.44328 -10.70998,-15.83899 -19.07298,-19.95609 -5.45074,-2.68339 -6.75594,-2.95487 -12.61457,-2.62383 -5.44094,0.30745 -7.91951,1.06577 -14.80737,4.53038 -6.63975,3.3398 -9.95252,5.83261 -16.78385,12.62953 -9.78602,9.73672 -14.4444,17.88564 -16.8994,29.56215 -2.93051,13.93811 -0.18571,26.33107 12.2506,55.3125 12.63071,29.43446 14.7316,37.59136 12.73334,49.43836 -2.82561,16.75211 -13.47549,30.83102 -38.39827,50.7616 -11.55032,9.23672 -20.23809,14.18716 -24.84036,14.15445 -6.68115,-0.0475 -15.9037,-6.90398 -26.12159,-19.42008 -14.2992,-17.51536 -19.25522,-40.63262 -15.21689,-70.97901 0.75118,-5.64489 3.54045,-20.83239 6.19836,-33.75 4.37639,-21.2695 4.83147,-24.63703 4.8209,-35.67407 -0.0143,-14.98733 -2.34955,-24.90399 -9.61524,-40.8323 -16.10992,-35.31716 -17.45208,-51.77267 -8.86582,-108.69895 5.76728,-38.23664 4.13099,-62.50878 -5.70789,-84.66861 -12.80144,-28.83228 -14.89065,-36.39598 -14.80868,-53.61264 0.0516,-10.82997 0.59014,-14.79812 4.8352,-35.625 6.29709,-30.894396 6.99077,-36.038678 6.95298,-51.5625 C 180.16512,30.806945 175.8026,13.996407 168.26312,4.1116521 166.98403,2.4346754 165.9375,0.82351777 165.9375,0.53130179 165.9375,0.23908581 170.12558,0 175.24435,0 l 9.30687,0 2.77355,7.265625 c 6.01004,15.743915 7.20873,23.159508 7.16036,44.296875 -0.0388,16.947994 -0.39361,21.378738 -3.00322,37.5 -4.32665,26.72846 -5.04528,33.66166 -5.053,48.75 -0.0114,22.29483 2.87883,34.64361 12.67587,54.15849 15.62561,31.12493 16.96804,43.32981 8.58245,78.02901 -7.15443,29.60478 -8.04672,34.90046 -8.60894,51.09375 -0.62874,18.10979 1.15992,28.83496 6.75644,40.51285 4.17179,8.705 13.23335,18.23371 21.03862,22.12324 9.13269,4.55102 17.15542,3.37775 30.27529,-4.42755 22.2662,-13.24666 35.29082,-33.18816 35.3375,-54.10396 0.0184,-8.22814 -3.35067,-21.04792 -9.33225,-35.51083 -14.42995,-34.89033 -15.97954,-39.98515 -15.94218,-52.41559 0.0426,-14.17239 5.39803,-25.76952 18.04076,-39.067 7.72458,-8.12463 19.97622,-17.43007 29.27878,-22.23797 4.4525,-2.30122 6.7975,-2.90786 11.25,-2.91034 7.71037,-0.005 12.25306,2.56007 22.0738,12.46069 12.9996,13.10532 17.61997,25.22051 18.45407,48.38896 0.5648,15.68792 -0.7856,26.29201 -6.74537,52.96875 -5.01078,22.42899 -6.12625,29.59559 -6.12625,39.35973 0,13.55422 4.13378,28.07013 13.03564,45.77503 5.41907,10.77801 9.08426,22.32193 10.81024,34.04806 2.61646,17.776 1.78564,31.60906 -4.16182,69.29315 -6.50294,41.20379 -4.65348,61.25234 8.47765,91.89936 9.65828,22.54167 12.61236,38.68367 10.38561,56.75016 -0.57836,4.69246 -2.7221,16.92683 -4.76384,27.1875 -5.52307,27.75573 -6.90109,39.77917 -6.27491,54.74951 0.60995,14.58257 2.83735,24.96563 7.50518,34.98552 5.70458,12.24537 26.19344,37.40791 32.63105,40.07446 6.13098,2.53953 8.87152,0.80213 31.88844,-20.21623 25.19417,-23.00655 32.71212,-31.84406 38.20211,-44.90738 2.01526,-4.79525 2.40029,-7.15438 2.38675,-14.62387 -0.0193,-10.66397 -1.57252,-15.64149 -12.20349,-39.10897 -15.44628,-34.09712 -18.2837,-49.00175 -12.56864,-66.02145 4.71105,-14.02973 15.39775,-26.26963 28.68446,-32.85345 6.50611,-3.2239 9.27484,-4.0655 14.28365,-4.34172 16.32791,-0.90045 29.46228,11.20642 35.40807,32.63809 1.31352,4.73459 1.6833,9.43937 1.65792,21.09375 -0.0381,17.48813 -2.13249,29.21962 -9.28901,52.03125 -12.16977,38.79153 -11.48975,46.44496 7.03353,79.16026 8.48594,14.98762 10.66028,20.35574 13.16869,32.5116 1.78365,8.64361 1.95431,11.78288 1.52299,28.01564 -0.43292,16.29282 -0.95539,20.93249 -4.80352,42.65625 -7.91694,44.69338 -7.00309,58.3021 6.13111,91.30237 9.11198,22.89422 12.03285,39.71729 10.24026,58.9801 -0.55692,5.98458 -2.66488,20.60368 -4.68434,32.48688 -5.99175,35.2572 -6.6877,50.3701 -3.21017,69.7107 1.91536,10.6525 4.75263,18.0935 12.95515,33.9765 10.5013,20.3343 12.13164,25.8065 12.13507,40.731 0.003,11.1419 -0.29404,13.2733 -3.45702,24.8437 -11.26829,41.2202 -12.22352,46.372 -12.16797,65.625 0.0336,11.6337 0.42668,15.9553 1.97148,21.6729 3.02059,11.1797 7.39568,19.2869 13.85352,25.6709 10.18311,10.0665 18.96804,13.2755 28.62066,10.4545 12.43922,-3.6355 30.59895,-18.32 37.75489,-30.5297 5.93078,-10.1194 7.53973,-16.0288 7.55205,-27.7373 0.0139,-13.1876 -1.64171,-19.0019 -12.81329,-45 -10.18168,-23.6945 -12.52543,-30.3578 -13.72639,-39.0241 -2.04287,-14.7416 3.50051,-29.514 16.50148,-43.9741 4.27203,-4.7516 21.41439,-20.2071 31.47116,-28.3744 13.77183,-11.1845 19.37952,-10.858 31.73528,1.8478 18.79978,19.3324 25.49067,34.0667 26.74652,58.8997 0.84517,16.7125 -1.04702,30.2015 -9.53436,67.9688 -2.95393,13.1445 -4.09314,32.6167 -2.42428,41.4377 1.69498,8.9589 5.407,19.7259 10.99319,31.8863 8.9297,19.439 12.30049,36.8673 11.28125,58.3288 -0.53396,11.2434 -1.68889,19.757 -7.38528,54.4409 -1.47861,9.003 -2.0151,16.4745 -2.05314,28.5938 -0.0566,18.0523 1.15087,25.9637 6.10574,40.0031 1.48675,4.2126 2.70318,7.9211 2.70318,8.241 0,0.32 -3.45766,0.4592 -7.68368,0.3094 l -7.6837,-0.2723 -5.42774,-10.633 c -9.61284,-18.8317 -12.52947,-32.1319 -10.20547,-46.5382 0.62742,-3.8894 3.21993,-14.3436 5.76115,-23.2315 9.40397,-32.8904 12.07728,-50.5516 10.21437,-67.4813 -2.42534,-22.041 -10.60372,-36.4273 -25.75618,-45.3066 -4.07267,-2.3866 -5.60975,-2.7436 -11.71875,-2.7219 -6.1038,0.022 -7.83503,0.438 -13.125,3.1574 -17.55468,9.024 -29.90685,22.1666 -35.83804,38.1312 -1.71446,4.6148 -2.06151,7.4764 -2.03882,16.8115 0.0347,14.2662 1.80919,20.3537 13.89269,47.6607 11.70967,26.4619 13.2127,31.4024 13.16624,43.2768 -0.0329,8.4168 -0.34373,10.0935 -3.04102,16.4062 -3.32985,7.7931 -12.71018,20.9004 -19.31358,26.9872 l -4.28557,3.9503 -34.66893,0 -34.66893,0 -2.34077,-3.9942 z m 42.80292,-14.502 c 15.7141,-8.5526 19.68065,-31.8854 9.01303,-53.0178 -3.1062,-6.1534 -9.20153,-13.2448 -13.13091,-15.2768 -9.04702,-4.6784 -18.00549,2.7322 -23.88685,19.7595 -2.26197,6.5488 -2.59285,8.927 -2.60858,18.75 -0.0154,9.6169 0.29984,12.0504 2.17155,16.7633 2.47314,6.2273 7.62015,12.4523 11.80682,14.2796 4.81196,2.1002 11.37729,1.6038 16.63494,-1.2578 z m 85.61245,-271.2283 c 8.70313,-5.3788 15.281,-23.7089 14.21486,-39.6117 -0.61179,-9.1255 -2.80609,-15.4511 -7.10322,-20.4769 -4.12411,-4.8235 -7.44688,-6.4369 -13.25607,-6.4369 -20.11339,0 -29.93381,28.643 -17.91959,52.2656 6.96254,13.69 16.16385,19.1425 24.06402,14.2599 z M 437.82275,930.73597 c 10.51349,-5.14749 20.77096,-18.65117 23.45864,-30.88267 1.61987,-7.37193 0.70274,-22.06251 -1.89298,-30.32205 -4.90784,-15.61657 -18.39928,-38.8755 -26.88009,-46.3406 -8.90331,-7.83701 -15.56503,-3.52912 -25.52373,16.50527 -18.75186,37.72403 -15.0697,80.76475 7.85916,91.86562 6.44746,3.1215 15.58805,2.7931 22.979,-0.82557 z m 79.99505,-59.69062 c 5.89525,-3.88679 14.54709,-19.20938 19.83164,-35.12224 4.77844,-14.38886 6.32073,-23.07156 6.35317,-35.76686 0.0447,-17.50757 -3.42596,-28.62928 -11.75349,-37.66359 -5.83784,-6.33329 -10.0857,-8.22619 -18.51884,-8.25218 -6.08455,-0.0188 -7.89862,0.39557 -13.23556,3.02294 -3.65602,1.79985 -8.30515,5.18219 -11.37116,8.27275 -18.15569,18.30105 -18.34455,44.28068 -0.56166,77.26447 7.64644,14.18268 15.73853,25.09969 20.96932,28.28965 3.53718,2.15713 4.95834,2.14942 8.28658,-0.0449 z M 245.66062,540.23326 c 15.81188,-8.26023 18.56032,-33.163 5.79979,-52.55016 -8.89431,-13.5132 -20.10036,-12.76446 -27.47036,1.83542 -9.58452,18.98682 -6.33492,44.3582 6.54802,51.12403 5.40453,2.83834 9.09719,2.7384 15.12255,-0.40929 z m 86.53213,-280.53893 c 5.27093,-4.62795 7.56451,-11.12771 7.61118,-21.56933 0.0335,-7.49015 -0.30837,-9.61327 -2.15002,-13.35283 -6.06865,-12.32273 -19.17189,-11.35447 -25.22346,1.86388 -2.05217,4.48253 -2.29074,6.06611 -1.92178,12.75653 0.49267,8.93356 3.28057,15.40199 8.68249,20.14494 4.49259,3.94455 8.63074,3.99445 13.00159,0.1568 z M 873.75,1498.1485 c 1.80469,-0.975 5.84959,-2.478 8.98868,-3.3399 6.78592,-1.8633 13.46511,-0.8811 19.60507,2.8829 l 3.75,2.2989 -17.8125,-0.035 -17.8125,-0.035 3.28125,-1.7729 z m 60.1791,-6.3516 c -6.2233,-16.8854 -7.05222,-21.5929 -7.05723,-40.0781 -0.004,-15.5618 0.26568,-18.2962 3.46794,-35.136 5.18939,-27.2896 6.21677,-34.7893 6.80949,-49.7078 0.93823,-23.6144 -2.50156,-38.708 -13.2465,-58.125 -17.99188,-32.5129 -19.14801,-42.4748 -8.88387,-76.5496 8.81514,-29.2644 11.89871,-47.2029 10.93379,-63.6066 -1.35722,-23.0728 -10.05826,-39.6995 -25.01522,-47.8015 -4.30985,-2.3345 -6.23349,-2.7955 -11.71875,-2.8083 -5.63302,-0.013 -7.55838,0.4642 -13.59375,3.3699 -19.52385,9.3994 -32.88288,26.2683 -35.79222,45.1962 -2.1882,14.2362 1.08559,27.1004 14.64208,57.5353 4.38785,9.851 9.04322,21.587 10.34527,26.08 4.71225,16.2611 2.25561,28.4452 -8.97679,44.5221 -4.80654,6.8796 -50.60995,51.3608 -54.16283,52.5994 -5.49286,1.9147 -12.06071,-4.1637 -26.95114,-24.9431 -15.05297,-21.0063 -18.15606,-29.8929 -18.86016,-54.0115 -0.54448,-18.6514 0.15576,-24.596 6.55832,-55.676 4.56743,-22.1718 4.83055,-24.2222 4.87219,-37.9688 0.0503,-16.6075 -1.3851,-23.5899 -8.09458,-39.375 -11.78332,-27.722 -14.12668,-37.4438 -14.12355,-58.5937 0.002,-14.0528 0.16493,-15.4505 6.88138,-59.0626 5.27456,-34.24945 2.92097,-55.84045 -8.9933,-82.50147 -14.59124,-32.65137 -15.4834,-43.94767 -6.64724,-84.16619 5.55258,-25.27306 7.11507,-36.49112 7.11507,-51.08342 0,-26.80713 -6.09422,-42.53104 -23.25864,-60.01047 -11.22029,-11.42621 -17.87379,-13.66816 -27.02698,-9.10694 -6.60001,3.28893 -27.86764,20.59628 -36.10845,29.38465 -16.4236,17.51486 -21.4503,34.95184 -15.82658,54.90039 1.14994,4.07907 5.57209,15.68063 9.827,25.78125 15.09965,35.84462 17.22062,47.58653 11.61507,64.30225 -5.24576,15.64284 -19.34771,30.71951 -37.34642,39.92775 -5.14589,2.63269 -7.11452,3.12384 -12.65625,3.15741 -8.54228,0.0516 -13.75121,-2.469 -22.06418,-10.67775 -11.24819,-11.10728 -16.80414,-27.02746 -16.82975,-48.22459 -0.017,-14.01739 2.00298,-26.40864 8.45666,-51.87764 6.75923,-26.67482 8.00726,-35.13656 6.65947,-45.15147 -1.41271,-10.49722 -4.16681,-18.11731 -13.08945,-36.21621 -8.96069,-18.17604 -11.86353,-27.80198 -13.28954,-44.06872 -1.39049,-15.86131 0.0263,-31.15271 6.25311,-67.49378 2.13793,-12.47735 2.57479,-17.83798 2.59758,-31.875 0.0252,-15.52813 -0.18382,-17.68981 -2.61875,-27.0838 -1.45538,-5.61484 -4.87934,-15.73984 -7.6088,-22.5 -10.22052,-25.31348 -12.36872,-35.72132 -11.42544,-55.35493 0.32367,-6.73682 1.44881,-16.8894 2.50029,-22.56127 7.30244,-39.3905 8.89127,-54.34879 7.48044,-70.42593 -1.742,-19.85097 -5.47137,-29.60383 -19.67352,-51.44907 -4.6931,-7.21875 -10.51632,-17.09318 -12.94051,-21.94319 -4.02026,-8.04324 -4.40608,-9.40265 -4.39018,-15.46875 0.0158,-5.9903 0.60634,-8.09321 5.94923,-21.18181 13.43216,-32.90504 17.01687,-47.0279 16.98582,-66.91968 -0.027,-17.31747 -3.90766,-30.02121 -11.92147,-39.02666 -5.77372,-6.48817 -11.30504,-8.89741 -20.42736,-8.89741 -6.57744,0 -8.29088,0.37895 -13.65329,3.01955 -10.58329,5.21153 -20.18889,16.19636 -24.4447,27.95463 -1.29509,3.57816 -2.1768,8.68372 -2.45119,14.19364 -0.77818,15.62601 3.38827,28.72345 18.45425,58.01195 5.05501,9.827 10.09521,20.28423 11.20047,23.23829 5.86268,15.66939 -0.16084,26.54014 -32.28727,58.26944 -25.86952,25.54972 -33.42257,35.32977 -35.94088,46.5379 -1.46996,6.54233 0.33024,11.75602 11.83929,34.28867 5.92943,11.60876 12.01788,24.10684 13.52989,27.77349 11.55891,28.03066 8.27282,51.039 -9.66078,67.64236 -6.42501,5.9484 -10.64658,8.32962 -18.33272,10.3407 -17.07351,4.46729 -32.27139,-8.2459 -37.39658,-31.28265 -1.21498,-5.46111 -1.44277,-9.93055 -1.05323,-20.66555 0.71972,-19.83413 4.21172,-32.45271 18.18939,-65.72867 4.14935,-9.87815 4.5287,-11.41541 4.5287,-18.35193 0,-7.01582 -0.28882,-8.14954 -3.9406,-15.46875 -2.16733,-4.34394 -8.02524,-14.2262 -13.01756,-21.96057 -16.08761,-24.92378 -19.03182,-33.364 -19.82059,-56.81996 -0.58147,-17.29111 0.26221,-25.54322 5.59672,-54.74254 3.65635,-20.01363 3.93926,-22.74098 3.93857,-37.96875 -8.9e-4,-19.52177 -0.98667,-24.07002 -10.2613,-47.34375 -3.28765,-8.25 -7.13738,-19.21875 -8.55497,-24.375 -2.41582,-8.78712 -2.5794,-10.58015 -2.60877,-28.59375 -0.0292,-17.88983 0.20874,-20.65209 3.44064,-39.947681 6.01178,-35.892546 6.66613,-53.784536 2.67273,-73.081794 -1.48326,-7.167523 -2.90224,-11.236342 -8.23429,-23.61115 C 364.61192,0.29015941 366.33705,0 371.95917,0 l 7.47227,0 2.40587,5.390625 c 8.68566,19.461232 10.4591,27.255537 10.39879,45.703125 -0.0513,15.691907 0.17823,14.085838 -7.56991,52.96875 -2.26157,11.34932 -2.52385,14.73765 -2.53987,32.8125 -0.0198,22.32694 1.00285,28.34908 6.91916,40.74561 5.89727,12.35659 24.16123,32.7952 31.45766,35.20324 7.77374,2.56557 12.40761,-0.003 34.73651,-19.25164 20.59784,-17.75674 28.16034,-26.83854 33.70135,-40.47189 3.14754,-7.74433 3.7081,-15.14944 1.83148,-24.19407 -1.50444,-7.25086 -3.05596,-11.38558 -15.3564,-40.923778 -7.65253,-18.376768 -9.78789,-27.529078 -9.26285,-39.701222 0.4486,-10.399924 2.43228,-17.168732 7.46513,-25.472902 3.97231,-6.554286 12.07474,-14.7746202 18.94886,-19.224613 L 498.10319,0 l 14.714,0 14.71399,0 3.72936,2.7015334 c 7.94528,5.7555404 13.86143,16.7207876 16.77232,31.0866096 1.26952,6.265399 1.48545,10.699154 1.04727,21.505362 -0.63974,15.777468 -2.26161,24.215213 -9.56557,49.764855 -6.56133,22.95193 -7.86822,32.38742 -5.84711,42.21527 2.00052,9.72771 6.05215,19.47552 14.77159,35.53887 8.14974,15.01386 10.34014,20.76037 12.68583,33.28125 2.3548,12.56951 1.50155,39.927 -1.87134,60 -6.55634,39.01868 -7.43834,51.76522 -4.67842,67.61157 1.99908,11.47796 3.49316,16.33988 10.35167,33.68559 8.15154,20.6159 9.84254,27.84788 10.40143,44.48409 0.4856,14.45524 0.0795,17.92758 -6.30397,53.90625 -1.95234,11.00381 -3.00328,20.58097 -3.39487,30.9375 -1.05803,27.98264 2.0252,39.97698 16.50787,64.21875 14.75031,24.68975 17.35634,31.01404 17.19097,41.71875 -0.11195,7.24666 -0.91874,10.17912 -10.31714,37.5 -3.54751,10.3125 -7.27235,22.96875 -8.27742,28.125 -2.4446,12.54141 -2.52498,33.90174 -0.16053,42.65625 3.68733,13.65242 10.83525,23.69888 20.11136,28.26672 3.56671,1.75635 5.99373,2.20203 11.99149,2.20203 10.47489,0 17.88692,-3.62499 27.63653,-13.51614 8.32529,-8.44617 12.62105,-16.42994 14.80503,-27.51553 3.03009,-15.38037 -0.57244,-28.95245 -16.77027,-63.17984 -11.54024,-24.38546 -13.66185,-31.37678 -12.08907,-39.83675 2.02877,-10.91266 11.02954,-24.31724 25.71425,-38.29549 24.15831,-22.99608 34.7752,-35.29957 40.04479,-46.40625 4.13059,-8.70605 3.74419,-11.49399 -3.53876,-25.53199 -24.48382,-47.193 -26.62944,-52.62881 -27.32789,-69.2335 -0.33768,-8.02823 -0.0729,-11.65161 1.16434,-15.9375 3.95035,-13.68341 13.62258,-25.68003 25.32161,-31.40678 5.68235,-2.78154 7.47007,-3.20271 13.59375,-3.20259 6.0639,1.3e-4 7.75426,0.38967 12.07484,2.78264 12.9924,7.19589 19.76865,22.66773 19.8036,45.21651 0.0302,19.45444 -4.75629,37.50814 -17.55786,66.22537 -9.31701,20.90045 -9.57604,23.22703 -3.82757,34.37787 2.25694,4.37799 8.81426,15.13184 14.57184,23.89747 11.70751,17.82411 15.2176,24.68658 18.22182,35.625 1.81029,6.59135 2.0644,9.88521 2.09739,27.1875 0.0399,20.96841 0.12168,20.28149 -6.5224,54.84375 -3.15282,16.40077 -3.51427,19.82421 -3.51392,33.28125 3.5e-4,13.21993 0.2924,16.0953 2.46103,24.2297 1.35336,5.07633 4.42145,13.93571 6.81799,19.6875 5.84688,14.03275 10.29182,28.48676 11.68008,37.98112 1.77694,12.15259 0.67878,33.99228 -2.71724,54.03918 -6.09242,35.96394 -7.27934,56.05642 -4.32624,73.23657 2.01402,11.71692 3.42775,15.75619 11.29172,32.26237 16.01565,33.61631 16.65578,41.57925 6.60271,82.13481 -7.14574,28.827 -8.39575,37.7077 -7.82483,55.5914 0.53057,16.6197 1.73728,22.1989 7.22776,33.4179 2.93441,5.996 5.23531,9.0379 11.00773,14.5529 15.07319,14.4008 23.43324,14.7475 42.39792,1.7584 20.50701,-14.0456 29.91217,-27.8693 33.32186,-48.9768 0.83242,-5.1531 -1.12649,-17.6053 -4.22345,-26.8473 -1.4869,-4.4373 -5.90845,-15.6198 -9.82565,-24.85 -14.12626,-33.28616 -15.55118,-45.99219 -7.13529,-63.62609 5.61751,-11.7705 13.67272,-20.67713 31.85732,-35.22475 21.63493,-17.30786 27.17671,-17.44992 43.24606,-1.10861 4.89844,4.98134 10.49907,11.77039 12.44587,15.08679 7.46601,12.71869 10.64049,28.5256 9.76432,48.62007 -0.62357,14.30109 -1.80428,21.64499 -7.69767,47.87859 -8.52539,37.9496 -7.54889,49.7327 6.73897,81.3171 14.26645,31.5371 15.17329,49.5174 5.40721,107.2188 -3.29319,19.4574 -4.09273,42.8204 -1.87353,54.7454 2.22855,11.9753 4.7053,19.8718 10.43858,33.2812 6.51103,15.2283 9.69684,27.1463 10.40025,38.9063 0.67959,11.362 -0.35109,19.7132 -5.78531,46.875 -5.71557,28.5678 -6.3931,34.7541 -5.84822,53.3935 0.51487,17.611 2.47144,26.6704 8.21906,38.0564 l 2.81747,5.5813 -8.256,0 -8.25606,0 -3.02334,-8.2031 z M 808.8178,1296.9776 c 11.82336,-5.8918 19.20201,-21.059 17.75957,-36.5058 -1.1589,-12.4105 -8.05865,-27.6264 -16.23544,-35.8039 -8.275,-8.2757 -16.62917,-7.0275 -23.68504,3.5388 -15.88085,23.7817 -13.16952,60.9501 5.06186,69.3909 5.34567,2.475 11.32317,2.2582 17.09905,-0.62 z m 86.5079,-280.0245 c 6.63849,-4.5127 11.76838,-18.30682 11.60483,-31.20494 -0.31246,-24.64107 -20.61561,-34.81135 -32.95976,-16.51032 -6.28222,9.31378 -6.61325,23.29678 -0.83085,35.09696 6.69848,13.6697 14.28865,17.9867 22.18578,12.6183 z M 614.36795,891.41743 C 615.73875,889.24425 614.3512,885 612.26994,885 c -2.77886,0 -3.99914,5.0833 -1.75822,7.32422 1.35419,1.35419 2.61741,1.05714 3.85623,-0.90679 z M 707.48063,666.4779 c 8.44577,-5.21978 17.6211,-25.85477 20.02818,-45.04269 2.6701,-21.28447 -4.00189,-40.32106 -16.35967,-46.67758 -13.03604,-6.70539 -29.20533,1.13108 -37.66912,18.25638 -3.10729,6.28718 -3.49805,7.92507 -3.90451,16.36603 -0.58723,12.19513 1.18718,19.78274 7.78184,33.27621 10.62092,21.73163 20.65977,29.67042 30.12328,23.82165 z M 436.57311,364.0942 c 9.37078,-4.42344 18.37375,-16.65299 20.81946,-28.28097 3.11255,-14.79836 -1.52149,-33.64135 -12.64734,-51.42687 C 436.41457,271.06917 430.92687,266.25 424.09296,266.25 c -2.98396,0 -4.18286,0.70829 -8.12934,4.80269 -5.69267,5.90604 -11.76654,18.3103 -15.34852,31.34522 -2.20808,8.03525 -2.56722,11.13113 -2.60385,22.44584 -0.0497,15.33928 1.44112,21.77178 7.06097,30.46677 7.34694,11.36714 19.09081,14.6418 31.50089,8.78368 z M 1035.8847,1492.896 c 7.9021,-8.3188 15.0675,-18.9147 17.8871,-26.4505 4.7886,-12.7989 3.1335,-24.2265 -6.6686,-46.0447 -14.4504,-32.1645 -17.9065,-42.1015 -19.1462,-55.0493 -1.6775,-17.5218 8.4721,-38.2487 24.2394,-49.5 15.1554,-10.8147 25.4172,-12.7949 36.2856,-7.0021 21.9087,11.6772 29.9677,41.2744 21.8887,80.3872 -1.4461,7.0012 -4.5205,17.901 -11.2776,39.9822 -3.0662,10.0198 -3.4526,12.4289 -3.5335,22.0312 -0.1112,13.1947 1.3716,18.1959 10.7712,36.3281 l 6.4393,12.4219 -41.8167,0 -41.8168,0 6.7481,-7.104 z m 97.1983,1.3981 c -3.6424,-8.3988 -6.0686,-18.5905 -7.2874,-30.6129 -1.6791,-16.5615 0.1122,-33.653 7.7876,-74.3062 1.612,-8.5384 2.0367,-14.2919 2.0414,-27.6563 0.01,-15.237 -0.2312,-17.7601 -2.4375,-25.9948 -1.344,-5.0159 -4.2015,-13.4534 -6.3502,-18.75 -9.9547,-24.539 -12.4713,-35.4752 -12.3557,-53.6926 0.076,-12.0341 0.9211,-18.1004 7.898,-56.7188 1.545,-8.5515 1.9688,-14.9498 2.0491,-30.9375 0.1292,-25.7106 -1.1613,-31.6628 -10.9558,-50.533 -16.0158,-30.8561 -17.0992,-34.0036 -16.9747,-49.3107 0.089,-10.9665 0.2467,-11.7824 6.2482,-32.375 6.781,-23.2671 8.5047,-30.7565 10.1342,-44.0313 2.9641,-24.14728 -3.2756,-47.69372 -15.6309,-58.98563 -7.4889,-6.84454 -12.5042,-8.98632 -20.9993,-8.96775 -6.1209,0.0134 -7.8693,0.43372 -13.504,3.24676 -17.9724,8.97243 -30.2657,24.39928 -34.0069,42.67537 -2.9453,14.38744 0.1599,27.85945 13.305,57.72325 12.5407,28.4912 14.9463,38.2848 12.2543,49.8919 -1.632,7.0373 -4.6711,13.5364 -10.0163,21.4197 -4.1963,6.1889 -53.1961,55.6504 -56.01826,56.5461 -1.08112,0.3431 -3.17137,-0.038 -4.78378,-0.8714 -4.90125,-2.5345 -28.75125,-35.026 -33.92484,-46.2165 -4.39641,-9.5094 -6.50794,-19.7976 -7.0665,-34.4305 -0.59166,-15.5025 0.79041,-27.6342 6.24825,-54.8438 4.98394,-24.8473 5.98847,-33.32747 5.33062,-45 -0.6795,-12.0585 -3.55303,-23.02378 -9.92484,-37.8735 -14.52774,-33.85748 -15.80263,-49.40869 -8.03929,-98.064 4.23163,-26.52098 5.51938,-40.50964 4.83295,-52.5 -1.06238,-18.55668 -4.39409,-30.98107 -12.82138,-47.8125 -13.25832,-26.48021 -15.07572,-43.41548 -7.94801,-74.0625 8.81923,-37.92002 10.78039,-52.94512 9.01215,-69.04508 -2.2229,-20.23963 -6.81469,-30.65468 -18.77658,-42.58883 -9.89472,-9.87177 -14.82085,-12.49655 -22.42148,-11.94677 -6.86052,0.49625 -12.29797,3.16975 -23.50186,11.55548 -15.39311,11.52121 -24.66272,22.65531 -29.89116,35.90348 -2.16657,5.48982 -2.47929,7.63146 -2.49098,17.05922 -0.0158,12.81077 0.92786,16.54874 9.58618,37.96875 10.28887,25.45388 11.52195,28.8237 13.37891,36.5625 6.72071,28.0082 -5.58439,51.34054 -38.40986,72.83095 -16.02532,10.49158 -23.56806,9.38016 -38.62911,-5.69199 -11.95996,-11.96878 -16.71861,-22.98078 -18.63859,-43.1316 -1.47932,-15.52584 0.53509,-32.51792 7.12502,-60.10111 4.68883,-19.62587 5.99212,-28.08585 5.97648,-38.79468 -0.0213,-14.55928 -2.2623,-22.57546 -12.28967,-43.96027 -15.0728,-32.14485 -16.20191,-49.71732 -6.88094,-107.0888 3.27387,-20.15092 4.05396,-42.52502 1.91218,-54.84375 -2.14415,-12.33235 -4.5866,-20.18187 -10.35928,-33.29251 -13.2653,-30.12752 -14.56083,-44.87412 -7.20568,-82.01999 6.98599,-35.28143 8.31066,-47.6744 6.73601,-63.019 -2.37764,-23.16943 -8.28943,-35.62558 -25.51453,-53.75913 -10.67123,-11.23403 -16.93304,-13.26154 -25.89418,-8.38427 -6.70071,3.64699 -36.46374,29.31584 -42.12842,36.33328 -10.7466,13.31295 -15.23663,23.86544 -15.23663,35.80915 0,9.61934 2.45218,18.01094 11.55338,39.53679 12.81728,30.31495 15.582,41.61034 13.63092,55.68961 -2.54675,18.37763 -15.27003,35.29004 -33.25236,44.20063 -7.51778,3.72521 -8.78517,4.05973 -15.29876,4.03807 -5.93222,-0.0198 -7.93276,-0.45719 -12.14633,-2.65601 -7.27321,-3.79547 -13.70212,-10.65598 -17.47813,-18.65148 -5.4599,-11.56109 -6.5306,-17.12808 -6.53555,-33.98139 -0.006,-18.06368 1.24318,-25.44857 9.10878,-53.87842 4.86542,-17.58581 5.64864,-21.57194 6.08423,-30.96533 0.70142,-15.12592 -1.18651,-21.64578 -12.92252,-44.62733 -10.02011,-19.62147 -12.47553,-26.34897 -14.50716,-39.74767 -2.57027,-16.951 -1.51747,-33.74568 4.29007,-68.4375 3.73106,-22.287778 4.64298,-43.307781 2.42904,-55.990835 -1.52377,-8.729347 -6.2448,-24.8005031 -8.68231,-29.55604 L 560.57685,0 l 8.2272,0.01236451 8.2272,0.0123645 7.70705,12.87826099 c 4.23888,7.083043 9.30137,16.25326 11.25,20.37826 3.4077,7.213681 3.54186,7.875794 3.51438,17.34375 -0.0285,9.807296 -0.0522,9.907978 -6.40767,27.1875 -10.20311,27.74061 -13.70921,43.1476 -13.71624,60.2739 -0.0173,42.25938 28.02139,62.41739 55.93888,40.21639 6.23765,-4.96041 13.11385,-14.62565 16.03619,-22.54058 3.17521,-8.59983 3.82163,-20.81437 1.62564,-30.71793 C 650.56204,114.14194 647.63731,106.58463 637.8572,85.969324 626.28031,61.566627 625.00193,57.706355 625.53152,48.75 c 0.33779,-5.71265 1.04969,-8.282045 3.7961,-13.700939 4.13352,-8.155738 12.74254,-19.133439 22.13805,-28.229058 L 658.51052,0 l 38.19933,0 38.19932,0 3.8009,7.734375 c 5.85711,11.91854 7.65834,20.204751 8.22708,37.847093 0.57089,17.708988 -0.22672,25.579534 -5.59401,55.199782 -3.49667,19.29694 -3.91138,23.13854 -3.94693,36.5625 -0.0512,19.33507 1.4979,26.02368 12.02296,51.91158 11.38909,28.0131 13.00753,45.32086 7.46276,79.80717 -6.61021,41.11297 -7.71961,53.94275 -6.01987,69.61736 1.97878,18.2478 3.93755,23.76154 17.89846,50.38264 9.55172,18.21351 12.41601,30.58487 10.30522,44.50985 -0.61346,4.04702 -3.57877,16.11824 -6.58958,26.82492 -7.64941,27.20194 -9.68709,39.93126 -9.06586,56.63398 0.29454,7.91919 1.10945,15.35606 2.05455,18.75 3.91579,14.06181 11.13729,24.11014 21.27335,29.60069 5.25206,2.84496 6.71727,3.20606 13.01998,3.20876 6.45267,0.003 7.82397,-0.35486 15,-3.9119 18.53076,-9.18541 31.50287,-27.42648 33.30671,-46.83512 1.149,-12.3628 -2.36196,-25.8948 -13.22411,-50.96868 -9.59383,-22.1461 -11.80469,-29.11124 -12.3915,-39.03832 -0.41523,-7.02444 -0.15398,-9.72899 1.44896,-15 3.57813,-11.76616 13.01086,-24.96825 25.97041,-36.34829 4.1618,-3.65455 12.39781,-11.01046 18.30225,-16.34647 11.8981,-10.75265 15.94207,-13.26692 21.33859,-13.26692 6.25665,0 13.75223,6.76823 26.54254,23.9669 12.15845,16.34902 15.69009,26.92042 16.48384,49.34165 0.62396,17.62473 -0.2386,25.48535 -5.99792,54.6602 -7.8232,39.62983 -6.67635,56.10071 5.84834,83.99296 5.03419,11.21103 8.4184,21.47826 10.4778,31.78829 2.10544,10.54012 2.09954,33.49434 -0.0122,46.875 -0.85435,5.41406 -2.61769,16.59375 -3.91866,24.84375 -6.76584,42.90834 -4.8066,63.50011 8.76544,92.12468 15.25687,32.17797 16.19006,42.648 7.19325,80.70095 -7.60866,32.18144 -9.5041,47.21572 -7.98141,63.30951 1.88109,19.88337 6.69103,30.93974 18.70041,42.9858 16.11759,16.16681 24.39581,16.09678 46.42006,-0.39291 13.8428,-10.3643 21.2132,-18.9356 26.7137,-31.06652 3.6208,-7.98558 5.0656,-16.10968 4.4133,-24.81607 -0.8496,-11.34037 -3.2344,-18.75529 -16.0503,-49.90363 -7.4144,-18.02083 -9.2812,-26.05366 -8.7944,-37.84405 0.4263,-10.32549 2.2988,-16.26018 8.3852,-26.5757 4.1061,-6.95917 15.8894,-18.79735 27.0512,-27.17719 21.1916,-15.90975 28.0766,-15.55463 45.0922,2.32584 12.0916,12.70623 16.5292,22.96315 18.7444,43.32471 1.7329,15.92991 -0.1253,31.22742 -7.9759,65.66083 -8.3658,36.69278 -7.2566,47.78155 8.1015,80.99642 6.6325,14.34405 9.7707,25.93839 10.89,40.23339 1.2664,16.17638 0.2716,27.11749 -5.9836,65.80149 -2.9608,18.3105 -3.969,40.1077 -2.3631,51.0905 1.5853,10.8425 4.9264,21.8356 10.9706,36.097 13.0024,30.6795 13.799,42.9726 5.4554,84.1867 -7.1368,35.2527 -8.3617,50.1046 -5.628,68.2388 2.487,16.4983 6.1987,24.384 21.2851,45.222 13.962,19.285 18.2109,23.2027 23.6762,21.831 3.0032,-0.7537 49.133,-46.862 53.8629,-53.8378 5.3667,-7.9151 8.4071,-14.4051 10.0681,-21.4918 2.8122,-11.9985 0.4837,-22.1967 -11.2413,-49.2334 -11.1505,-25.7117 -13.8462,-34.4384 -14.4097,-46.646 -0.5253,-11.3843 0.892,-18.4653 5.518,-27.5688 7.6266,-15.0082 23.4917,-28.5333 38.5687,-32.8799 4.4611,-1.2862 6.2741,-1.377 10.3125,-0.517 9.8279,2.0929 20.8846,11.7071 26.3129,22.8798 5.5413,11.4054 6.7012,17.6616 6.6285,35.7539 -0.073,18.2655 -1.2241,25.0408 -8.8377,52.0312 -11.0736,39.256 -10.6056,45.8135 5.587,78.2813 9.8004,19.6504 12.4325,27.2688 14.0816,40.7566 2.0042,16.3934 0.6832,33.2921 -5.0491,64.5902 -7.0977,38.7527 -6.803,54.8181 1.4297,77.9344 1.5608,4.3828 3.0706,8.707 3.3549,9.6094 0.4663,1.4799 -0.3161,1.6406 -7.9877,1.6406 l -8.5045,0 -6.5929,-9.2986 c -15.4043,-21.7264 -21.1361,-27.3666 -26.4396,-26.0176 -1.2146,0.3089 -9.9703,8.3815 -19.4571,17.939 L 1225.971,1500 l -25.8763,-0.1102 c -16.7638,-0.071 -24.275,-0.379 -21.3293,-0.8732 16.3706,-2.7469 31.8263,-20.6275 34.4995,-39.9121 2.5324,-18.2691 -5.8519,-42.1579 -24.6769,-70.3101 -6.6203,-9.9005 -11.1851,-14.4194 -14.5659,-14.4194 -5.8718,0 -15.9959,15.594 -23.6524,36.4313 -15.5638,42.3573 -6.8565,83.1355 18.8301,88.1859 2.8693,0.5641 -1.5199,0.8329 -14.7807,0.9051 l -18.8618,0.1027 -2.4745,-5.7059 z m 138.3463,-60.0178 c 8.423,-8.9718 19.0322,-33.9501 22.8683,-53.8416 2.0878,-10.826 2.1201,-27.7954 0.069,-36.2941 -3.1659,-13.1182 -10.0996,-23.1583 -19.0009,-27.5133 -4.5282,-2.2155 -5.8931,-2.4429 -12.3381,-2.0564 -8.6727,0.5202 -14.9229,3.3435 -22.0508,9.9611 -12.2349,11.3587 -18.0103,27.6429 -15.6825,44.218 2.1618,15.3931 10.7847,35.2033 23.8867,54.8775 11.2723,16.9265 14.7787,18.6048 22.2481,10.6488 z M 996.09375,1110.6017 c 11.12405,-5.2032 19.25595,-19.6708 19.20245,-34.1634 -0.05,-13.4232 -7.5537,-31.3763 -17.09607,-40.901 -6.97576,-6.9627 -10.12716,-7.9939 -16.20882,-5.3037 -7.06631,3.1258 -13.80187,14.6736 -17.42972,29.8827 -2.60137,10.9059 -2.14134,26.9888 1.00529,35.1484 5.8785,15.2434 17.85862,21.2624 30.52687,15.337 z m 87.21005,-284.80981 c 11.3346,-9.95187 13.315,-35.05616 3.6127,-45.79546 -4.0814,-4.5176 -8.3534,-6.08937 -13.0364,-4.79635 -5.2576,1.4517 -9.4194,5.20728 -12.323,11.12025 -7.7992,15.88284 2.0603,42.29283 15.8322,42.40832 1.5415,0.0129 3.8743,-1.14534 5.9145,-2.93676 z M 804.18718,721.48995 c 11.45034,-5.98193 14.10122,-24.96376 5.29594,-37.9219 -9.22995,-13.58308 -22.61275,-4.9002 -23.67621,15.36133 -0.49432,9.41812 1.3102,15.70538 5.69849,19.8545 4.55335,4.30517 8.15128,5.07291 12.68178,2.70607 z M 892.12887,469.6875 c 2.79381,0 9.83236,-7.82586 12.999,-14.45303 15.7716,-33.00687 2.80553,-71.10867 -21.71984,-63.82542 -6.72169,1.99613 -13.52394,8.35688 -17.37345,16.24583 -2.90084,5.94483 -3.0508,6.78004 -3.05812,17.03262 -0.008,11.77765 1.04027,16.21271 6.40719,27.09683 5.06296,10.26766 15.70418,19.96284 20.14615,18.35508 0.6867,-0.24855 1.85628,-0.45191 2.59907,-0.45191 z M 710.24856,103.70556 c 10.10423,-10.432043 18.21935,-34.29502 18.17267,-53.437738 -0.0444,-18.212587 -7.67426,-34.130623 -18.58153,-38.766459 -14.12835,-6.0048673 -31.9005,4.993783 -38.81931,24.02412 -2.78403,7.65751 -2.76022,21.539385 0.0538,31.388641 4.26497,14.927499 15.09082,33.421086 22.85774,39.047416 2.75887,1.9985 4.92323,2.78846 7.64002,2.78846 3.35418,0 4.35323,-0.58083 8.67658,-5.04444 z M 1338.6925,1495.5469 c -10.1371,-11.3799 -14.873,-30.7362 -12.9747,-53.0283 1.1527,-13.5342 3.6155,-24.4418 10.3777,-45.962 6.5193,-20.747 8.2405,-28.1094 8.2632,-35.344 0.032,-10.2635 -4.6401,-23.0261 -15.1372,-41.3484 -10.2196,-17.838 -13.1844,-26.7033 -14.8728,-44.4722 -1.4994,-15.7816 -0.085,-30.4297 6.1483,-63.6732 3.5065,-18.7009 4.2541,-25.2951 4.2514,-37.5 0,-17.4661 -2.0514,-25.845 -13.5221,-55.3335 -9.8142,-25.2298 -10.6867,-43.2448 -3.923,-80.992 7.3122,-40.80852 7.8642,-59.74799 2.3678,-81.23858 -1.8715,-7.31766 -3.398,-10.70353 -13.8449,-30.70913 -9.8609,-18.88359 -12.9007,-32.34559 -10.5214,-46.59619 0.6433,-3.85311 3.4335,-15.02128 6.2005,-24.81815 8.2964,-29.37483 9.2437,-34.93712 9.261,-54.375 0.013,-15.11029 -0.2148,-17.60684 -2.1825,-23.87321 -4.6942,-14.94905 -12.0461,-24.88075 -22.2316,-30.03304 -3.806,-1.92518 -5.9882,-2.34375 -12.2197,-2.34375 -6.9228,0 -8.1978,0.31041 -14.579,3.54937 -17.6781,8.97295 -29.7439,24.44296 -33.3532,42.76335 -2.8558,14.4954 -0.069,26.653 13.3676,58.32658 10.4454,24.62164 12.0694,30.11616 12.022,40.6732 -0.031,6.80541 -0.5132,9.66401 -2.4954,14.77822 -4.6144,11.90598 -9.7597,18.3234 -34.6282,43.18994 -12.978,12.97687 -24.6709,24.32981 -25.9844,25.22878 -4.3852,3.00131 -7.2234,2.17659 -13.0326,-3.78675 -7.141,-7.3306 -24.8842,-32.43566 -28.3925,-40.17317 -4.8591,-10.71671 -6.5669,-19.04827 -7.1169,-34.72155 -0.596,-16.98194 0.2884,-25.04555 5.9269,-54.03622 8.5716,-44.07253 7.9169,-53.26627 -6.2205,-87.35425 -9.3623,-22.57454 -11.7668,-35.13959 -10.9271,-57.1019 0.3439,-8.99491 1.5876,-20.46526 3.4146,-31.49185 4.295,-25.92251 5.6787,-38.50632 5.6787,-51.64608 0,-20.3675 -3.2172,-34.1207 -12.2881,-52.53065 -10.6221,-21.55814 -13.9687,-32.5942 -13.9548,-46.01812 0.01,-9.10029 1.0961,-15.42101 6.5745,-38.24265 6.1216,-25.50094 7.4727,-34.52796 7.4772,-49.9614 0.01,-25.13146 -5.9393,-41.03236 -19.7705,-52.86572 -12.9944,-11.11744 -22.2346,-11.48716 -38.212,-1.52894 -9.8275,6.12519 -16.9562,12.30629 -22.1281,19.18636 -12.287,16.34531 -15.4489,31.9175 -10.4639,51.53387 1.2288,4.83564 5.8883,17.84079 10.3544,28.90033 9.7918,24.248 12.0205,32.27206 11.9787,43.12748 -0.052,13.35334 -4.9401,25.03026 -15.9226,38.03188 -6.1216,7.24704 -27.371,24.75501 -34.96736,28.81051 -5.64375,3.01307 -12.40369,3.43059 -17.08341,1.05513 -8.79478,-4.46435 -21.52106,-18.60353 -26.89706,-29.88325 -5.24822,-11.01158 -6.69666,-17.70323 -7.254,-33.51394 -0.57075,-16.19167 0.45609,-25.89543 5.03503,-47.57981 5.86941,-27.7953 6.89766,-34.57916 6.88069,-45.39321 -0.0244,-15.73967 -2.63128,-25.89607 -11.68885,-45.54429 -13.36878,-29.00039 -15.27402,-48.49492 -8.88745,-90.9375 5.99977,-39.87208 6.7778,-52.68298 4.21317,-69.375 -2.0204,-13.1499 -4.52665,-21.0957 -11.17267,-35.42141 -7.685,-16.56524 -9.50845,-21.63473 -11.42122,-31.75282 -2.03265,-10.75224 -1.34145,-24.92783 1.95865,-40.16952 8.79277,-40.609772 10.50016,-52.851426 9.47525,-67.936068 C 928.52366,27.546007 925.06572,16.053637 918.18785,6.0074671 L 914.07497,0 923.8795,0 c 11.34525,0 10.31424,-0.83595862 14.59756,11.835914 4.98085,14.735199 6.0496,21.841983 5.97413,39.726586 -0.0581,13.716473 -0.56222,19.478662 -3.07641,35.146378 -9.24327,57.602042 -8.00866,73.424902 8.38313,107.438372 15.38278,31.91966 16.19531,40.85009 7.11496,78.1965 -6.95953,28.62381 -8.36006,37.55732 -8.3774,53.4375 -0.0112,10.27035 0.42431,14.93213 2.00259,21.4338 2.86181,11.78893 8.38228,21.92689 15.39638,28.27426 14.31215,12.9518 24.9059,13.19905 43.22656,1.00892 10.1147,-6.73005 18.9835,-16.29915 23.7655,-25.6418 5.1727,-10.10595 6.3519,-15.04015 6.2169,-26.01268 -0.1493,-12.15271 -2.0612,-19.14716 -12.0346,-44.02683 -10.1675,-25.36373 -12.1039,-32.29451 -12.0589,-43.16067 0.082,-19.90968 10.1673,-35.5552 36.6315,-56.82997 13.5072,-10.85851 19.0678,-13.95128 25.0835,-13.95128 5.8799,0 10.7448,2.717 18.175,10.15069 16.4202,16.42799 22.9818,31.23557 24.1665,54.53681 0.733,14.41852 -0.71,26.76234 -6.4112,54.84375 -8.407,41.408 -7.348,56.06359 6.1526,85.15149 10.4076,22.42357 14.1656,43.38504 11.8786,66.25476 -0.593,5.92969 -2.3068,18.79687 -3.8084,28.59375 -4.1715,27.21422 -4.8233,33.63733 -4.804,47.34375 0.028,19.9844 3.8311,36.59169 12.1848,53.20639 5.2215,10.3851 8.3456,18.34497 10.3931,26.48111 4.0961,16.27635 3.4991,25.56367 -3.6758,57.1875 -6.7196,29.61744 -7.0792,32.24641 -6.9897,51.09375 0.074,15.55971 0.2793,17.53068 2.6347,25.28729 3.7126,12.22644 7.4811,18.65104 16.0311,27.32995 14.5221,14.74115 23.0828,16.05335 38.1867,5.85338 21.1737,-14.29886 32.2751,-27.07122 37.7914,-43.47962 2.2921,-6.81775 2.4779,-8.41783 2.0679,-17.8035 -0.532,-12.17394 -2.055,-17.41238 -12.9713,-44.61192 -8.6468,-21.54502 -11.1487,-31.00076 -11.1578,-42.17105 -0.017,-20.27666 10.6068,-37.18422 34.6809,-55.19562 11.6898,-8.74588 16.895,-11.30825 22.9184,-11.28207 6.5731,0.0286 11.3519,2.48465 19.1526,9.84335 12.8956,12.16506 19.5102,25.98144 21.7352,45.39964 1.8201,15.88493 0.1985,30.35985 -7.095,63.33017 -5.6148,25.38266 -6.7142,34.85002 -5.2895,45.55083 1.4882,11.17744 4.7636,21.20157 11.9755,36.64976 6.4455,13.80626 10.0182,25.61976 11.5662,38.24357 1.9423,15.84037 1.1797,26.86176 -4.2321,61.16262 -4.5873,29.07509 -5.5112,40.76812 -4.2455,53.73059 1.4058,14.39688 4.5721,25.95776 11.2325,41.01222 9.7644,22.07044 12.9964,36.16107 11.8756,51.77541 -0.3331,4.64063 -2.8877,19.82815 -5.677,33.75005 -2.7892,13.9218 -5.5715,29.7421 -6.1829,35.1562 -2.1833,19.3362 0.3245,40.1491 6.4645,53.6493 3.1293,6.8805 14.6806,22.526 22.1348,29.9802 9.2124,9.2123 14.6709,10.2224 23.1643,4.2864 5.6306,-3.9352 31.6329,-27.6006 37.1442,-33.8062 12.7455,-14.3507 18.2401,-29.8982 16.073,-45.4795 -1.2396,-8.9117 -3.7676,-16.5111 -12.5391,-37.6927 -9.1528,-22.1023 -11.7422,-30.9147 -12.3966,-42.1875 -0.5992,-10.32075 0.8704,-17.61703 5.4345,-26.98181 8.7839,-18.02325 33.6336,-37.61014 47.8086,-37.68343 9.9031,-0.0512 25.0605,11.9186 31.3586,24.76412 5.7054,11.63681 7.2808,19.53365 7.3054,36.61987 0.025,17.40775 -0.8882,23.24325 -8.3408,53.29535 -6.1986,24.9956 -7.4702,34.2785 -6.0771,44.3648 1.467,10.6207 4.216,18.5238 11.9054,34.2253 3.7462,7.65 7.8835,17.3029 9.1938,21.4508 2.3347,7.3905 2.3825,8.1152 2.3825,36.1352 0,28.3905 -0.023,28.7294 -3.2766,47.7541 -6.5003,38.0126 -6.2007,55.0183 1.352,76.7494 1.893,5.4464 1.9246,7.129 1.9246,102.4219 0,67.3335 -0.3017,96.8844 -0.9891,96.8844 -1.9019,0 -8.7368,-18.3391 -11.3555,-30.4687 -2.0524,-9.5066 -1.3876,-29.8594 1.4547,-44.5313 8.5664,-44.2206 9.4777,-51.4674 8.7242,-69.375 -0.565,-13.4285 -2.8004,-24.426 -6.8143,-33.5253 -1.1965,-2.7124 -5.6135,-10.4659 -9.8157,-17.2301 -9.1855,-14.7859 -15.3658,-26.8517 -16.8963,-32.9868 -2.0093,-8.0541 -0.6539,-14.671 7.4537,-36.3873 11.6106,-31.0994 14.7822,-46.0879 13.9296,-65.8312 -0.733,-16.975 -4.6823,-28.0207 -13.2323,-37.0089 -6.0955,-6.4077 -11.8477,-8.9519 -20.3451,-8.9982 -6.4007,-0.035 -7.8327,0.3209 -14.4486,3.5907 -17.2571,8.5289 -28.6028,27.0285 -28.6028,46.6378 0,14.6263 4.1185,27.3587 17.8286,55.1164 12.2,24.7005 13.4107,28.1422 12.97,36.8698 -0.6309,12.4928 -8.2574,24.214 -29.4943,45.3292 -18.1725,18.0684 -25.0273,27.7155 -28.8552,40.6097 -3.5946,12.1086 -1.7559,19.5148 12.8476,51.7483 13.0963,28.9065 16.4291,43.2452 13.5032,58.0962 -2.0887,10.6018 -6.7722,19.7264 -14.2972,27.8542 -9.9582,10.7556 -9.1584,10.4905 -31.643,10.4905 l -19.2628,0 -3.9669,-4.4531 z m 35.1395,-190.0008 c 6.2194,-3.0428 15.3091,-12.4962 18.721,-19.47 7.5638,-15.4598 6.3729,-33.7039 -3.5737,-54.7481 -8.7453,-18.5027 -20.6029,-33.203 -26.7822,-33.203 -4.4051,0 -8.0164,2.3173 -12.0752,7.7481 -7.3509,9.8357 -14.6441,28.2801 -17.0102,43.0189 -1.7277,10.7618 -0.7736,29.7078 1.8718,37.1678 3.7216,10.4947 10.5803,18.4536 18.4173,21.3713 5.3138,1.9783 14.213,1.1573 20.4312,-1.885 z m 81.9959,-305.82488 c 3.0788,-2.15653 4.7977,-6.89194 4.7936,-13.20675 -0.01,-9.20531 -5.1719,-15.04097 -10.9059,-12.31969 -2.9856,1.41694 -6.9062,8.2485 -6.8979,12.0195 0.01,4.39659 2.0262,9.71128 4.6986,12.38372 3.0224,3.0224 5.1833,3.3144 8.3116,1.12322 z m -274.6111,-75.80326 c 19.9957,-7.05488 26.8937,-34.84452 14.9879,-60.38058 -6.5318,-14.00974 -15.2025,-22.59988 -22.8116,-22.59988 -7.7943,0 -17.2418,13.53931 -21.2606,30.46875 -7.8815,33.20091 7.1085,60.26525 29.0843,52.51171 z m 89.0957,-285.41359 c 9.4705,-6.68185 13.1952,-28.33341 7.0388,-40.9167 -3.162,-6.46278 -7.0524,-9.30642 -12.7322,-9.30642 -16.3474,0 -23.3869,25.84971 -11.9383,43.83872 5.4825,8.61473 11.4222,10.76546 17.6317,6.3844 z M 996.60347,537.7404 c 4.73313,-3.13223 8.91473,-10.50083 10.22323,-18.01465 C 1009.8076,502.60823 998.364,480 986.71875,480 c -9.003,0 -17.09822,13.69611 -18.04181,30.52465 -1.34541,23.99304 12.46247,37.44941 27.92653,27.21575 z m 86.20903,-265.79539 c 3.8853,-2.73604 8.0939,-8.9532 10.3115,-15.23268 3.1587,-8.94463 3.6995,-25.54696 1.0743,-32.98223 -2.5291,-7.16348 -6.0355,-11.64418 -10.8082,-13.81155 -4.8578,-2.20601 -8.467,-2.21679 -13.2338,-0.0396 -12.0729,5.5143 -18.022,21.49832 -14.1408,37.99316 3.6411,15.47452 14.5415,28.11138 22.5783,26.17507 1.0312,-0.24846 2.9296,-1.19446 4.2187,-2.10222 z m 367.7344,1227.40879 c 0.9023,-0.2359 2.3789,-0.2359 3.2812,0 0.9024,0.2358 0.1641,0.4287 -1.6406,0.4287 -1.8047,0 -2.543,-0.1929 -1.6406,-0.4287 z m -658.58061,-1.1691 c -17.06289,-5.5083 -26.9737,-29.991 -23.29535,-57.5466 2.45215,-18.3698 9.84444,-39.4274 18.67048,-53.1843 7.54537,-11.7609 12.12641,-13.8088 18.4564,-8.251 4.98282,4.375 16.42641,22.1341 22.90671,35.5486 14.91692,30.8787 13.66023,54.4116 -3.85567,72.2015 -7.40441,7.5203 -15.18187,11.3708 -23.75511,11.7611 -3.60938,0.1644 -7.71673,-0.074 -9.12746,-0.5293 z m -750.320403,-7.0145 c -20.267633,-8.8252 -24.746098,-46.2255 -9.326725,-77.8889 6.071075,-12.4668 13.823126,-19.3471 20.079611,-17.8215 7.310147,1.7825 16.193156,12.0201 23.598038,27.1965 5.429952,11.1287 7.602986,19.7563 7.578084,30.0871 -0.0518,21.4876 -15.240733,39.8254 -32.899593,39.7199 -3.379229,-0.021 -7.442465,-0.602 -9.029415,-1.2931 z M 0.13485695,1370.1563 c -0.0109679,-35.3291 0.27943278,-50.8246 0.92240055,-49.2188 2.282794,5.7015 5.4965993,20.3417 6.4892172,29.5611 1.3448285,12.4907 0.2554654,26.0326 -4.2208967,52.4702 l -3.17471342,18.75 -0.0160076,-51.5625 z M 132.38109,1399.0606 c -7.42744,-3.6607 -15.25755,-16.6619 -17.79662,-29.5499 -2.46434,-12.5087 0.42793,-23.9484 8.09305,-32.0098 8.87867,-9.3379 19.74585,-10.1269 27.85058,-2.0221 9.98155,9.9815 11.64881,32.558 3.68847,49.9457 -6.01841,13.1459 -13.43388,17.7768 -21.83548,13.6361 z m 749.77064,-8.3058 c -3.72435,-2.7477 -8.32329,-9.3959 -10.68227,-15.4423 -2.21499,-5.6773 -2.93779,-16.3793 -1.50861,-22.3368 3.47917,-14.5028 17.08281,-22.4561 27.08646,-15.836 10.69337,7.0766 12.94806,30.801 4.39974,46.2955 -5.22443,9.4697 -12.59256,12.2648 -19.29533,7.3196 z m 566.61657,-16.8161 c -5.1546,-3.6104 -6.781,-15.4349 -2.9089,-21.1496 7.8814,-11.6324 19.1873,2.8502 12.9498,16.5884 -2.5531,5.623 -6.1755,7.2686 -10.0409,4.5612 z m -1219.36393,-62.735 c -10.46413,-3.901 -17.84843,-13.2978 -21.8721,-27.8331 -2.57056,-9.2861 -2.35776,-29.3964 0.44454,-42.0086 3.93426,-17.7068 13.1571,-39.978 22.16941,-53.5344 4.35524,-6.5513 6.75456,-8.2934 9.39033,-6.8183 4.14087,2.3174 20.47473,28.347 28.97727,46.1782 13.12859,27.5328 13.74215,47.3362 2.01405,65.0053 -7.62561,11.4885 -19.88696,19.3345 -31.22262,19.9793 -4.01305,0.2282 -7.64348,-0.1269 -9.90088,-0.9684 z m 746.90494,-1.8288 c -20.45981,-9.777 -26.93315,-43.6029 -15.29644,-79.9305 7.66229,-23.9199 19.14713,-43.5069 25.51032,-43.5069 3.60469,0 7.49906,3.8524 14.54161,14.3847 29.9646,44.8129 33.2439,78.0703 9.903,100.4348 -6.9372,6.647 -14.48771,10.1389 -22.81899,10.5533 -5.99615,0.2982 -7.77319,0.01 -11.8395,-1.9354 z M 416.23795,1283.646 c -14.57831,-14.5783 -2.18865,-54.359 13.81183,-44.3468 12.42921,7.7774 15.61771,32.3133 5.59515,43.0555 -3.11842,3.3424 -6.66203,4.8328 -11.48992,4.8328 -3.81192,0 -4.83182,-0.4562 -7.91706,-3.5415 z m 91.37448,-35.974 c -9.52113,-8.7762 -25.88165,-37.6572 -30.98841,-54.7032 -3.48572,-11.6352 -3.69077,-25.2522 -0.51905,-34.4684 7.34108,-21.3314 27.77607,-35.1725 44.67534,-30.2597 6.0678,1.7639 13.16559,7.6873 16.9505,14.1457 10.72736,18.3049 9.66885,47.7351 -2.82291,78.4864 -4.52959,11.1506 -11.62117,23.6718 -15.48979,27.3495 -4.35661,4.1415 -6.84134,4.0257 -11.80568,-0.5503 z m 562.95637,-43.2296 c -4.3081,-2.9032 -8.7387,-8.9434 -11.3164,-15.4277 -3.0402,-7.6479 -3.1452,-22.1718 -0.2063,-28.5296 2.7459,-5.9399 8.7107,-11.7078 13.4184,-12.9755 9.8632,-2.6559 17.8227,3.4816 21.2642,16.3967 3.3918,12.7289 -0.6059,30.5203 -8.6701,38.5845 -3.4042,3.4042 -4.6678,4.0717 -7.7078,4.0717 -2.2236,0 -4.858,-0.8235 -6.782,-2.1201 z m -747.77882,-10.5119 c -4.11243,-1.7779 -8.41404,-8.061 -9.67397,-14.1301 -2.49865,-12.0359 3.60151,-23.8846 12.4255,-24.1347 7.5168,-0.2131 12.37083,6.863 12.40551,18.0843 0.0252,8.1638 -2.00555,14.4136 -5.85429,18.0165 -3.40452,3.187 -5.70081,3.7212 -9.30275,2.164 z m 842.99132,-71.9085 c -8.8391,-3.3002 -15.4754,-11.2773 -19.8348,-23.8426 -2.3321,-6.7216 -2.5692,-8.6411 -2.5925,-20.9919 -0.018,-9.6533 0.462,-15.8407 1.6567,-21.3452 5.7149,-26.3323 20.8903,-55.5298 28.8615,-55.5298 4.7319,0 12.2374,8.8946 22.1505,26.25 16.1194,28.2215 20.4579,49.0249 13.9582,66.9313 -4.3795,12.0655 -12.9394,21.956 -23.1059,26.6977 -5.8182,2.7137 -16.2936,3.6227 -21.0938,1.8305 z m -559.73987,-15.6652 c -4.78311,-2.1726 -10.16568,-8.3905 -12.15748,-14.0442 -2.10327,-5.9701 -2.79441,-18.202 -1.4611,-25.8584 2.36081,-13.5568 9.42637,-25.3752 16.58228,-27.7368 4.12064,-1.36 9.98773,0.5624 13.74123,4.5024 4.00953,4.2086 9.07911,13.3906 11.1522,20.1986 2.71618,8.92 2.18677,21.4141 -1.21902,28.7691 -3.08021,6.6518 -9.05192,12.5646 -14.59891,14.4546 -5.53503,1.8859 -7.35375,1.8428 -12.0392,-0.2853 z m 88.45528,-58.6933 c -5.92829,-4.0285 -15.54393,-17.9557 -21.38466,-30.9736 -11.21314,-24.99199 -9.11965,-47.12168 5.88466,-62.20484 6.81584,-6.85162 14.34113,-10.42256 21.96439,-10.42256 7.15615,0 10.96177,1.449 16.17474,6.15863 16.63784,15.03131 17.43776,50.04127 1.86518,81.63267 -8.15935,16.5525 -15.98296,21.6 -24.50431,15.8097 z m 565.03459,-26.3223 c -10.1029,-5.2436 -18.3936,-24.14992 -16.8844,-38.50332 1.5822,-15.04782 13.4397,-27.29672 24.4289,-25.23516 11.3422,2.12784 18.9186,18.3239 16.5168,35.30775 -1.8958,13.40543 -6.6191,23.33103 -13.2192,27.77873 -3.6876,2.4852 -6.9341,2.6804 -10.8422,0.652 z m 91.8795,-89.48501 c -8.5511,-4.37644 -15.4044,-14.14117 -18.4101,-26.23119 -0.8139,-3.27337 -1.241,-9.94905 -1.1696,-18.28125 0.097,-11.39428 0.487,-14.54666 2.9539,-23.90625 5.4073,-20.51411 15.4111,-39.46888 22.8647,-43.3222 3.076,-1.5902 3.755,-1.63809 6.5625,-0.46283 9.4242,3.94507 26.228,32.00735 31.7738,53.06204 2.5652,9.73885 2.5691,22.82514 0.01,31.10311 -3.5814,11.58243 -12.4883,22.42531 -22.3549,27.21404 -6.3058,3.06049 -17.08,3.46012 -22.2296,0.82453 z m 145.7579,-8.18432 c -3.4859,-11.68708 -4.6124,-17.86488 -5.257,-28.82812 -0.6982,-11.87722 0.2443,-21.33667 4.7814,-47.98343 l 3.1633,-18.57907 0.072,51.32812 c 0.039,28.23047 -0.078,51.32813 -0.2604,51.32813 -0.1827,0 -1.3073,-3.26953 -2.4992,-7.26563 z m -702.38991,0.74271 c -4.48026,-1.41114 -8.97177,-4.70033 -11.96171,-8.75974 -9.90366,-13.44604 -9.25491,-42.11126 1.38334,-61.12359 6.24789,-11.16601 13.62207,-15.12323 21.03672,-11.28897 10.23955,5.29507 22.49439,29.81955 22.55909,45.14539 0.0592,14.03979 -7.12247,27.76041 -17.45985,33.35686 -5.09427,2.75793 -11.6865,3.88931 -15.55759,2.67005 z M 44.176246,913.94924 c -8.013473,-4.05466 -11.963011,-13.96183 -11.12262,-27.90039 0.715346,-11.8646 5.033989,-22.09243 11.283458,-26.7226 13.343913,-9.88635 30.871811,18.22048 24.578407,39.41267 -3.878189,13.05928 -15.214962,20.02942 -24.739245,15.21032 z m 88.934124,-52.2436 c -4.3116,-2.28588 -12.557,-12.15938 -17.75984,-21.26663 -9.97485,-17.46033 -14.3639,-34.19418 -12.43671,-47.41659 3.56741,-24.47604 26.21867,-42.2626 44.05177,-34.591 19.49212,8.38529 25.71759,40.90698 14.14515,73.89396 -6.55523,18.68556 -15.75447,31.11212 -23.03193,31.11212 -0.936,0 -3.17179,-0.77933 -4.96843,-1.73186 z m 750.16518,-8.29092 c -6.10068,-3.00601 -15.25309,-15.74403 -20.64296,-28.73018 -3.03995,-7.32434 -5.75759,-19.04415 -5.75759,-24.82956 0,-26.61872 24.82047,-48.23109 42.6974,-37.17864 8.57199,5.29966 13.62234,14.61353 15.63283,28.83012 2.42134,17.12182 -3.78854,41.50611 -14.20794,55.79019 -5.31268,7.28321 -11.21891,9.32222 -17.72174,6.11807 z m 562.81825,-14.19943 c -5.7832,-3.52682 -12.1858,-12.61792 -15.4727,-21.96999 -6.0625,-17.24864 -3.3136,-34.16854 7.1123,-43.77885 5.0406,-4.64622 9.2793,-6.59145 14.363,-6.59145 4.8739,0 7.5773,1.09702 11.7659,4.77468 9.9537,8.73949 12.8749,29.79861 6.6851,48.19407 -5.8369,17.3466 -15.379,24.90564 -24.4537,19.37154 z m -91.9247,-60.0983 c -4.4132,-3.28933 -8.8352,-8.40407 -18.6895,-21.61699 -12.7186,-17.05347 -17.0471,-29.47283 -17.971,-51.5625 -0.6233,-14.89983 0.7248,-26.73076 6.2487,-54.84375 8.197,-41.71628 7.4769,-52.4446 -5.6377,-83.98448 -9.5742,-23.0252 -11.3716,-30.58266 -11.911,-50.07802 -0.4642,-16.78093 -0.6178,-15.27737 5.7928,-56.71875 3.3069,-21.37715 3.9956,-39.68347 2.0002,-53.1659 -2.0379,-13.76967 -4.751,-21.80088 -12.7775,-37.82327 -3.6406,-7.26731 -7.9593,-17.08414 -9.5971,-21.81518 -2.7938,-8.07016 -2.9779,-9.41325 -2.9788,-21.7269 -9e-4,-12.82011 0.1232,-13.6259 5.3437,-34.6875 7.3201,-29.53262 8.4911,-36.81582 8.5164,-52.96875 0.024,-15.8723 -1.9804,-25.92232 -7.2441,-36.30635 -4.1109,-8.10988 -8.562,-13.23546 -15.5404,-17.89552 -10.9879,-7.33744 -19.0118,-7.20132 -32.8983,0.55809 -10.1107,5.64953 -21.6876,16.86882 -26.6473,25.82421 -5.5539,10.02807 -7.2968,16.52413 -7.3383,27.35082 -0.047,12.27213 1.9855,19.90188 12.0309,45.1591 12.0659,30.33767 13.9741,39.09032 11.3089,51.87215 -2.9481,14.13866 -12.5348,28.57168 -27.4337,41.30214 -25.6767,21.93961 -28.6831,23.87018 -36.0673,23.16065 -12.3098,-1.18282 -33.6786,-27.45784 -38.702,-47.58779 -4.9991,-20.03282 -3.8655,-39.41799 4.6875,-80.15625 3.8726,-18.44558 5.1556,-37.03959 3.2936,-47.73219 -1.579,-9.06734 -5.2329,-20.13444 -10.3953,-31.48656 -12.6657,-27.85148 -15.2243,-49.85536 -9.8658,-84.84375 4.816,-31.44604 6.0805,-43.133284 6.0982,-56.361572 0.023,-17.972271 -2.6391,-32.888299 -8.0767,-45.2394565 C 1118.4982,2.9715308 1117.5,0.54574962 1117.5,0.35209653 1117.5,0.15844344 1120.8113,0 1124.8585,0 l 7.3587,0 4.2934,9.140625 c 12.5915,26.80605 13.6396,40.272002 5.8195,74.765625 -6.1793,27.25555 -7.9547,39.21624 -7.9549,53.5894 -4e-4,25.22475 6.0356,41.64576 19.9296,54.21918 13.8496,12.53316 22.8525,12.78375 40.4063,1.12468 16.0907,-10.68728 27.5524,-24.44835 32.558,-39.08951 1.61,-4.70945 2.0821,-8.22344 2.0777,-15.46875 -0.01,-12.06678 -2.0003,-19.67212 -11.5322,-44.003691 -8.7336,-22.293629 -11.0788,-30.298017 -11.8279,-40.371309 -1.2545,-16.865401 6.9921,-34.784492 22.5535,-49.0066688 L 1233.9011,0 l 27.9661,0 27.9661,0 2.5759,3.046875 c 3.6003,4.2584592 8.4356,14.798041 10.8603,23.671875 1.7591,6.438173 2.0462,9.889111 2.0273,24.375 -0.023,18.275917 -0.3314,20.468747 -7.823,55.78125 -6.5084,30.67809 -5.436,46.50051 4.7019,69.375 10.9347,24.67249 12.2275,28.46077 14.5571,42.65625 2.684,16.3551 2.028,27.77616 -3.8498,67.03125 -6.8567,45.79252 -5.129,64.16032 8.8252,93.81938 9.8107,20.85223 12.3201,29.98975 12.3392,44.93062 0.014,10.98057 -0.9544,17.21603 -6.4787,41.71875 -5.5352,24.55073 -6.9311,35.87045 -6.3587,51.5625 0.8083,22.15935 5.9834,35.67043 18.5337,48.3875 12.2706,12.4335 21.0966,14.96725 32.3722,9.29328 12.8981,-6.49049 30.9749,-22.78702 37.6607,-33.95167 5.9791,-9.98467 7.2339,-14.9066 7.2448,-28.41661 0.011,-14.35965 -0.5148,-16.38015 -11.7642,-45.15562 -9.4612,-24.20107 -11.5045,-31.91961 -11.4998,-43.43813 0.01,-14.96108 5.3168,-26.90699 17.9769,-40.43936 7.6416,-8.16804 25.478,-22.159 32.0157,-25.11314 8.7713,-3.96351 16.1164,-1.98838 26.0563,7.00669 16.6316,15.05081 23.6312,32.59529 23.6312,59.23218 0,14.1082 -1.6019,25.52111 -7.0855,50.48017 -8.8303,40.19229 -7.8988,51.42867 6.9501,83.83346 l 6.2291,13.59375 0.2688,43.125 c 0.2414,38.74717 0.08,44.50497 -1.5899,56.71875 -1.0222,7.47656 -2.1146,16.99676 -2.4275,21.15599 -0.6284,8.35294 0.7622,24.78016 2.8455,33.61317 0.9611,4.07516 1.3339,11.57792 1.3082,26.32459 l -0.037,20.625 -2.2924,-7.7531 c -1.2607,-4.26421 -5.678,-14.38921 -9.8162,-22.5 -12.6479,-24.79007 -15.6333,-37.6212 -12.7014,-54.59065 0.8463,-4.89844 3.6283,-16.71094 6.1821,-26.25 7.038,-26.28738 8.7381,-37.766 8.1225,-54.84375 -0.7843,-21.76168 -4.7478,-32.8804 -15.5616,-43.65382 -7.9915,-7.96165 -13.543,-10.70009 -21.7164,-10.7121 -5.3603,-0.008 -7.1966,0.50241 -14.0778,3.91216 -19.363,9.59473 -32.7116,26.94287 -35.819,46.55103 -2.0738,13.08676 1.0448,26.28713 13.0018,55.03118 9.9794,23.99034 11.9512,31.42381 11.5063,43.37964 -0.3246,8.72751 -0.6604,10.19632 -3.8798,16.97121 -1.9385,4.07923 -5.3606,9.98548 -7.6049,13.125 -4.3436,6.07616 -42.6807,43.46038 -47.7178,46.53173 -4.3872,2.67501 -8.9503,2.35889 -13.3565,-0.92529 z m 16.071,-45.05073 c 10.3573,-4.43089 18.1974,-18.58964 18.1974,-32.86327 0,-7.1794 -3.0406,-18.66587 -7.1693,-27.08329 -3.8401,-7.82912 -12.4035,-17.36051 -16.5088,-18.37496 -9.6111,-2.37501 -18.8659,7.89886 -24.0659,26.71597 -5.4859,19.8519 -2.1699,39.72936 8.1421,48.80638 6.3413,5.58179 12.8963,6.43901 21.4045,2.79917 z m 86.633,-279.84653 c 3.7021,-1.91443 7.1703,-6.69188 9.6278,-13.26233 1.6482,-4.40679 2.0568,-7.52132 2.0729,-15.80115 0.019,-9.42895 -0.2059,-10.77242 -2.616,-15.6805 -3.5299,-7.18812 -7.0611,-9.632 -13.9177,-9.632 -4.4955,0 -5.8524,0.43471 -8.9062,2.85322 -2.0381,1.61418 -4.824,5.27827 -6.4151,8.4375 -2.5381,5.03943 -2.8119,6.45324 -2.8057,14.49053 0.01,8.12276 0.2796,9.48355 3.1058,15.46875 5.8328,12.35159 12.6439,16.85455 19.8542,13.12598 z m -275.1181,-98.7933 c 5.0458,-2.29201 11.1461,-9.39446 13.6681,-15.91353 5.4998,-14.21629 0.2828,-36.39636 -11.2807,-47.95978 -7.51,-7.50994 -14.1959,-7.17587 -20.685,1.03356 -9.1219,11.53995 -12.8444,34.05929 -7.9668,48.19457 4.7138,13.66102 15.3611,19.59794 26.2644,14.64518 z m 86.4947,-276.118604 c 3.8113,-1.983063 6.3653,-5.119655 9.2349,-11.341838 2.1258,-4.609571 2.6621,-7.275831 2.9773,-14.802846 0.4425,-10.567628 -0.7151,-15.880687 -4.6403,-21.299386 -7.5402,-10.408944 -19.7919,-8.04438 -26.5694,5.127847 -2.4712,4.802979 -2.7724,6.298239 -2.7199,13.501642 0.092,12.647774 5.7485,24.590708 13.493,28.489673 3.9401,1.983628 4.959,2.023879 8.2244,0.324908 z M 232.96875,740.72077 c -20.24085,-5.17875 -28.03508,-37.0592 -16.79239,-68.68524 6.6983,-18.8425 16.07711,-28.80932 24.49532,-26.03106 6.6218,2.18539 14.28067,11.16861 21.12405,24.77678 11.73758,23.34031 10.59845,44.89262 -3.16895,59.95634 -7.17133,7.84658 -17.81807,11.98908 -25.65803,9.98318 z m 748.81462,-0.9787 c -7.61671,-1.89345 -14.42381,-9.17011 -18.26371,-19.52356 -1.70504,-4.59735 -1.9936,-7.40877 -1.99482,-19.43726 0,-12.60589 0.25997,-14.91508 2.52207,-22.2935 4.94625,-16.1333 13.14506,-28.71725 19.93153,-30.59195 4.51031,-1.24595 9.60187,1.00256 14.6849,6.48503 12.92326,13.93893 21.06446,37.46907 18.55656,53.63297 -3.1468,20.28197 -20.16971,35.5235 -35.43653,31.72827 z m 87.14863,-79.71803 c -10.9468,-7.92985 -21.6771,-31.57194 -21.7282,-47.87395 -0.07,-22.43747 18.0516,-41.30955 35.0873,-36.53983 12.8452,3.59643 19.958,18.71155 18.9771,40.32724 -0.7987,17.60273 -6.2666,32.72904 -15.144,41.89437 -4.4332,4.57715 -5.1692,4.98063 -9.0835,4.98063 -3.2367,0 -5.1836,-0.66951 -8.1087,-2.78846 z M 321.9591,651.9698 c -9.39207,-3.17622 -19.37286,-20.77578 -20.6999,-36.50105 -2.39431,-28.37222 25.84439,-47.08156 39.76459,-26.34575 6.63015,9.87641 8.09782,25.77118 3.74514,40.55968 -5.03261,17.09863 -13.54831,25.41917 -22.80983,22.28712 z M 0.32138469,612.65625 c 0.003405,-4.125 0.16822603,-5.69588 0.36626841,-3.49085 0.19804238,2.20504 0.19525627,5.58004 -0.006191,7.5 -0.20144773,1.91997 -0.3634824,0.11585 -0.36007716,-4.00915 z M 1164.6466,552.1072 c -19.9576,-9.87887 -23.5879,-46.68744 -7.8096,-79.18354 5.9686,-12.29261 11.028,-17.29866 17.4829,-17.29866 4.1524,0 4.6599,0.30549 10.5679,6.36033 15.1417,15.51836 24.558,43.29469 20.7961,61.34543 -4.5534,21.84901 -25.4415,36.49628 -41.0373,28.77644 z M 605.18613,530.52547 c -11.09489,-9.74144 -5.8222,-39.27547 7.01183,-39.27547 7.38131,0 13.12428,8.63771 13.85613,20.8403 0.38716,6.45535 0.16075,7.8063 -2.0737,12.37336 -4.44985,9.09513 -12.41392,11.66384 -18.79426,6.06182 z m 653.37077,-58.77766 c -6.8436,-4.30526 -14.1396,-14.97974 -18.7092,-27.37281 -3.7165,-10.07946 -4.3409,-24.19542 -1.4479,-32.73476 3.3656,-9.9344 8.8572,-16.59314 17.191,-20.8447 5.6379,-2.87627 15.0539,-2.19486 19.8111,1.43368 8.7669,6.68679 12.8856,17.02625 12.9296,32.45828 0.053,18.30609 -5.9873,35.79856 -15.4928,44.87174 -4.1983,4.00738 -9.9818,4.89365 -14.2818,2.18857 z M 507.72075,439.35152 c -10.92428,-11.5831 -2.82785,-35.71465 9.79298,-29.18817 10.6254,5.49461 7.2518,32.33665 -4.06418,32.33665 -1.91699,0 -3.66593,-0.9612 -5.7288,-3.14848 z m 846.93805,-73.24578 c -20.2631,-6.46441 -26.6407,-40.28557 -14.08,-74.66808 3.2441,-8.88024 10.2034,-20.12537 14.5275,-23.47429 3.8972,-3.01831 8.7209,-2.83048 13.1006,0.51014 12.3689,9.4342 24.6986,35.47356 25.6403,54.15035 0.7452,14.7785 -3.1634,25.89941 -12.2962,34.98492 -8.1883,8.14613 -18.1379,11.2898 -26.8922,8.49696 z m 142.8237,-9.90673 c -5.0174,-19.39124 -5.1836,-35.67172 -0.66,-64.63651 l 2.7088,-17.34375 0.2511,22.79918 c 0.1382,12.53956 0.1382,32.76661 0,44.94901 l -0.2511,22.14983 -2.0488,-7.91776 z m -702.84299,-0.3612 c -9.16517,-3.34363 -14.54996,-12.92701 -15.30814,-27.24406 -1.02408,-19.33865 7.89212,-39.41328 18.37936,-41.3807 12.03002,-2.25685 27.03559,22.87055 25.07062,41.98171 -1.8611,18.10089 -15.68423,31.18783 -28.14184,26.64305 z M 45.922873,343.24876 c -4.849505,-2.59982 -7.656151,-8.68901 -7.693479,-16.69149 -0.03934,-8.43356 1.724808,-13.91417 5.887302,-18.28986 4.74129,-4.98414 8.319734,-4.93744 13.180203,0.17197 9.963326,10.47363 7.95004,30.47635 -3.55114,35.28184 -3.882466,1.6222 -3.919881,1.61995 -7.822886,-0.47246 z m 88.951557,-30.60297 c -6.22099,-3.38004 -22.19988,-29.41997 -29.81271,-48.58418 -9.404264,-23.67385 -6.846511,-43.79816 7.51834,-59.15424 14.12347,-15.09803 32.57645,-17.01657 44.04106,-4.57894 14.77701,16.03117 16.01483,48.64689 3.08787,81.36363 -4.72348,11.95462 -11.09911,23.39397 -15.73511,28.23236 -4.27897,4.46578 -5.31728,4.77631 -9.09945,2.72137 z M 883.4063,300.03881 C 875.08786,294.96675 862.69579,274.04161 856.73388,255 c -3.09479,-9.88439 -3.04413,-25.10959 0.11074,-33.28125 7.99085,-20.69773 26.56054,-31.60089 41.74913,-24.51295 22.34319,10.42672 25.3848,52.18995 6.46842,88.81554 -7.2841,14.10338 -14.18702,18.57151 -21.65587,14.01747 z m 565.3658,-14.1867 c -6.6302,-1.92108 -17.2782,-16.95225 -21.8555,-30.85211 -2.5188,-7.64882 -3.4455,-19.52962 -2.0359,-26.10194 3.3593,-15.66397 15.0302,-27.33556 27.3339,-27.33556 11.7389,0 20.9121,10.61245 23.4719,27.15466 3.2523,21.01761 -7.2819,51.79878 -19.4699,56.89124 -3.4029,1.42185 -3.3809,1.42113 -7.4445,0.24371 z m -93.8391,-73.58827 c -6.9277,-3.5366 -23.7222,-23.17951 -28.8852,-33.78431 -6.283,-12.90547 -7.374,-18.99 -7.3758,-41.13578 0,-14.34877 0.4139,-21.84841 1.5306,-27.65625 0.8427,-4.38281 3.1123,-15.984375 5.0437,-25.78125 3.1343,-15.899203 3.5179,-19.423698 3.5719,-32.8125 0.054,-13.478711 -0.1918,-15.903265 -2.4274,-23.90625 -1.3682,-4.898437 -4.0287,-12.492187 -5.9119,-16.875 -1.8833,-4.3828125 -3.6504,-8.4960937 -3.9268,-9.140625 C 1316.1686,0.27798799 1318.3243,0 1325.6396,0 l 9.5902,0 6.0169,5.6284651 c 14.9194,13.9564219 24.6423,13.7819789 43.8881,-0.7874177 L 1391.5297,0 l 19.6405,0 19.6406,0 -5.6859,4.2741691 c -9.9017,7.4432389 -19.0594,21.0191729 -22.1295,32.8061119 -0.7881,3.025635 -1.4329,8.970876 -1.4329,13.211647 0,12.776452 2.7878,22.927391 13.8665,50.489322 6.5317,16.25022 8.2448,21.82541 9.5286,31.01106 2.1312,15.24894 -4.0961,31.76435 -17.4352,46.23925 -6.8564,7.44023 -30.6589,28.49308 -36.5695,32.34505 -5.1586,3.36201 -11.6362,4.12509 -16.0199,1.88723 z m 14.3215,-42.91908 c 13.2758,-6.18204 20.026,-23.91143 15.9977,-42.01791 -3.0669,-13.78477 -11.2147,-27.07014 -18.877,-30.77935 -3.8192,-1.848881 -4.7959,-1.974562 -7.9654,-1.024959 -9.9456,2.979787 -18.7351,22.805779 -18.7111,42.205549 0.021,16.53881 5.1126,27.81663 14.4812,32.07223 5.0924,2.31315 9.409,2.18271 15.0746,-0.45556 z m 128.9775,34.16632 c -0.7146,-2.79345 -4.6602,-11.86293 -8.7681,-20.15441 -4.1079,-8.29148 -8.7922,-18.87229 -10.4096,-23.51292 -2.7727,-7.95531 -2.9408,-9.21437 -2.9412,-22.03125 -6e-4,-13.40332 0.075,-13.89582 5.3619,-35.15625 6.712,-26.989215 8.3573,-37.237296 8.3535,-52.03125 -0.01,-21.350215 -4.818,-36.492789 -14.9717,-47.109375 L 1471.4945,0 l 11.4921,0 11.4921,0 2.5263,5.390625 2.5263,5.390625 0.2931,43.59375 c 0.2546,37.878292 0.072,45.191616 -1.3897,55.78125 -2.272,16.45338 -2.2835,40.27396 -0.024,51.09375 1.3529,6.48079 1.6129,11.64455 1.3925,27.65441 -0.2598,18.86319 -0.3255,19.47346 -1.5705,14.60667 z m -702.2945,-2.8664 c -5.39,-1.0317 -10.88291,-4.39405 -17.72908,-10.85237 -17.70695,-16.70384 -22.7789,-44.9043 -15.08157,-83.85481 0.96802,-4.89844 3.24457,-15.396452 5.05902,-23.32892 1.81444,-7.932468 3.78056,-18.565098 4.36916,-23.628067 C 774.40557,43.06275 771.47629,29.108548 762.191,9.609375 L 757.61512,0 l 11.5295,0 c 11.1708,0 11.71331,0.09479518 17.43728,3.046875 8.47517,4.3709822 17.34104,4.3709822 26.57023,0 L 819.58552,0 l 19.89306,0 19.89307,0 -8.51396,8.6940968 C 836.9821,22.863286 831.32354,34.868934 831.31553,50.15625 c -0.006,11.253827 2.25241,19.574394 11.93322,43.966969 4.31826,10.880661 8.72886,23.228321 9.80133,27.439231 2.41125,9.46757 2.61361,23.02656 0.45334,30.37677 -4.22785,14.38507 -16.13684,29.09622 -32.22337,39.80545 -11.86392,7.89814 -18.46515,10.21641 -25.34255,8.90001 z m 10.87951,-48.34073 c 3.79094,-4.01958 5.38032,-9.40082 4.8681,-16.48219 -0.77373,-10.69674 -8.11878,-19.42282 -14.46905,-17.18955 -6.54377,2.30132 -10.95815,14.82234 -8.82963,25.04444 1.57155,7.54719 5.73428,11.94835 11.30107,11.94835 3.36308,0 4.49435,-0.52696 7.12951,-3.32105 z M 42.192551,192.55616 C 32.746284,189.12253 25.031489,181.6761 20.047683,171.18162 15.415173,161.42687 13.773229,152.71703 13.757066,137.8125 13.738619,120.80182 15.249818,112.64401 25.392797,75 27.454975,67.346561 28.443857,61.221487 28.801374,53.887484 29.488852,39.784749 27.470486,31.947377 18.50235,13.896067 L 11.666104,0.13588438 58.143561,0.09085151 104.62102,0.04581864 95.201138,9.6322847 C 79.609122,25.500027 74.358122,36.997434 75.25766,53.299822 c 0.557588,10.105225 2.677076,17.097503 10.982407,36.231428 11.361952,26.17581 14.072433,35.62727 14.072433,49.07069 0,21.50445 -13.371227,40.95127 -35.400432,51.4856 -8.276596,3.95786 -16.241555,4.8233 -22.719517,2.46862 z M 229.18246,174.48893 c -2.08246,-0.94593 -5.54886,-3.72227 -7.70311,-6.16964 -12.15279,-13.80629 -12.46808,-42.46555 -0.73328,-66.65338 7.56138,-15.585571 15.70498,-20.078711 24.6489,-13.599767 7.62472,5.523317 17.95912,23.387187 21.22042,36.681257 4.21877,17.19701 -0.18697,34.01817 -11.59674,44.27655 -7.73464,6.9541 -17.84833,9.0934 -25.83619,5.46498 z m 748.84567,-1.10722 c -10.91822,-5.54675 -16.96857,-20.57323 -15.83175,-39.31921 1.04062,-17.15972 7.24068,-33.90137 15.68071,-42.341394 4.01907,-4.019083 4.99275,-4.533606 8.57935,-4.533606 5.11012,0 9.36478,2.791384 14.50666,9.517575 7.7133,10.089905 13.8432,25.383625 14.9239,37.233995 1.4679,16.0973 -6.8724,33.21443 -19.04344,39.08322 -5.52806,2.66556 -13.959,2.82661 -18.81543,0.35942 z m 93.02877,-72.00129 c -7.0395,-4.292845 -15.5182,-16.977033 -20.4539,-30.59917 -2.1333,-5.887463 -2.817,-9.631931 -3.1803,-17.415733 -0.7232,-15.497754 2.6526,-24.587066 12.4609,-33.551301 8.5693,-7.831907 17.0436,-9.490071 25.8012,-5.048591 17.3965,8.82264 21.5649,39.811731 9.2818,69.003902 -6.743,16.025848 -15.6957,22.619963 -23.9097,17.610893 z M 321.09375,91.391975 c -7.6634,-4.093656 -16.81668,-18.415012 -19.24464,-30.110442 -3.70634,-17.853362 2.87634,-35.391811 15.48781,-41.26468 12.08298,-5.626759 23.34982,0.453566 28.18681,15.211459 2.81069,8.575539 2.41328,24.664835 -0.85503,34.615438 -5.83055,17.751543 -14.99732,26.130253 -23.57495,21.548225 z M 0.34684189,50.625 c 0,-5.414063 0.15494508,-7.628906 0.34432241,-4.921875 0.18937732,2.707031 0.18937732,7.136719 0,9.84375 C 0.50178697,58.253906 0.34684189,56.039062 0.34684189,50.625 Z M 233.38275,21.611037 C 227.81912,19.922805 220.53712,13.905554 212.61846,4.453125 L 208.8879,0 l 32.1169,0 32.1169,0 -10.70147,8.532939 c -15.05759,12.006334 -22.10672,15.18117 -29.03748,13.078098 z m 743.88712,-3.73463 C 974.65116,16.374358 969.42384,11.84316 965.65378,7.8070793 L 958.79897,0.46875 974.45906,0.21143733 c 8.613,-0.14152196 22.48697,-0.14152196 30.83104,0 L 1020.461,0.46875 1010.6211,8.2273006 C 993.87281,21.433022 986.95837,23.433489 977.26987,17.876407 Z"
       style="fill:#d82524;fill-opacity:1" />
  </g>
</svg>
