<svg id="visual" viewBox="0 0 900 600" width="900" height="600" xmlns="http://www.w3.org/2000/svg" xmlns:xlink="http://www.w3.org/1999/xlink" version="1.1"><path d="M0 202L30 189.5C60 177 120 152 180 152.2C240 152.3 300 177.7 360 173.2C420 168.7 480 134.3 540 127.7C600 121 660 142 720 139.8C780 137.7 840 112.3 870 99.7L900 87L900 0L870 0C840 0 780 0 720 0C660 0 600 0 540 0C480 0 420 0 360 0C300 0 240 0 180 0C120 0 60 0 30 0L0 0Z" fill="#FF7300" stroke-linecap="round" stroke-linejoin="miter"></path></svg>