<svg id="visual" viewBox="0 0 960 100" width="960" height="100" xmlns="http://www.w3.org/2000/svg" xmlns:xlink="http://www.w3.org/1999/xlink" version="1.1"><path d="M0 26L20 29.3C40 32.7 80 39.3 120 45.2C160 51 200 56 240 59.5C280 63 320 65 360 63.7C400 62.3 440 57.7 480 51.5C520 45.3 560 37.7 600 40C640 42.3 680 54.7 720 57C760 59.3 800 51.7 840 51.3C880 51 920 58 940 61.5L960 65L960 0L940 0C920 0 880 0 840 0C800 0 760 0 720 0C680 0 640 0 600 0C560 0 520 0 480 0C440 0 400 0 360 0C320 0 280 0 240 0C200 0 160 0 120 0C80 0 40 0 20 0L0 0Z" fill="#ff7300" stroke-linecap="round" stroke-linejoin="miter"></path></svg>